<mxfile host="Electron" agent="Mozilla/5.0 (Macintosh; Intel Mac OS X 10_15_7) AppleWebKit/537.36 (KHTML, like Gecko) draw.io/24.7.17 Chrome/128.0.6613.36 Electron/32.0.1 Safari/537.36" version="24.7.17">
  <diagram name="Page-1" id="HxWgIZjrP6oLHqILUHs_">
    <mxGraphModel dx="1242" dy="802" grid="1" gridSize="10" guides="1" tooltips="1" connect="1" arrows="1" fold="1" page="1" pageScale="1" pageWidth="850" pageHeight="1100" math="0" shadow="0">
      <root>
        <mxCell id="0" />
        <mxCell id="1" parent="0" />
        <mxCell id="zX_aPd7AnAtp43NVW58V-4" value="Diagram" style="text;html=1;resizable=0;points=[];autosize=1;align=left;verticalAlign=top;spacingTop=-4;fontSize=30;fontStyle=1" vertex="1" parent="1">
          <mxGeometry x="20" y="20" width="140" height="40" as="geometry" />
        </mxCell>
        <mxCell id="zX_aPd7AnAtp43NVW58V-22" value="terraform code&lt;div&gt;&lt;br&gt;&lt;/div&gt;" style="dashed=0;outlineConnect=0;html=1;align=center;labelPosition=center;verticalLabelPosition=bottom;verticalAlign=top;shape=mxgraph.weblogos.github" vertex="1" parent="1">
          <mxGeometry x="20" y="110" width="75" height="75" as="geometry" />
        </mxCell>
        <mxCell id="zX_aPd7AnAtp43NVW58V-25" value="" style="rounded=0;whiteSpace=wrap;html=1;" vertex="1" parent="1">
          <mxGeometry x="200" y="105" width="400" height="240" as="geometry" />
        </mxCell>
        <mxCell id="zX_aPd7AnAtp43NVW58V-23" value="" style="outlineConnect=0;dashed=0;verticalLabelPosition=bottom;verticalAlign=top;align=center;html=1;shape=mxgraph.aws3.cloud_2;fillColor=#F58534;gradientColor=none;" vertex="1" parent="1">
          <mxGeometry x="190" y="90" width="30" height="30" as="geometry" />
        </mxCell>
        <mxCell id="zX_aPd7AnAtp43NVW58V-27" value="IAM" style="outlineConnect=0;dashed=0;verticalLabelPosition=bottom;verticalAlign=top;align=center;html=1;shape=mxgraph.aws3.iam;fillColor=#759C3E;gradientColor=none;" vertex="1" parent="1">
          <mxGeometry x="500" y="135" width="30" height="50" as="geometry" />
        </mxCell>
        <mxCell id="zX_aPd7AnAtp43NVW58V-39" value="" style="rounded=0;whiteSpace=wrap;html=1;fillColor=#f5f5f5;fontColor=#333333;strokeColor=#666666;" vertex="1" parent="1">
          <mxGeometry x="250" y="140" width="190" height="150" as="geometry" />
        </mxCell>
        <mxCell id="zX_aPd7AnAtp43NVW58V-28" value="Infra Nodes" style="sketch=0;points=[[0,0,0],[0.25,0,0],[0.5,0,0],[0.75,0,0],[1,0,0],[0,1,0],[0.25,1,0],[0.5,1,0],[0.75,1,0],[1,1,0],[0,0.25,0],[0,0.5,0],[0,0.75,0],[1,0.25,0],[1,0.5,0],[1,0.75,0]];outlineConnect=0;fontColor=#232F3E;fillColor=#ED7100;strokeColor=#ffffff;dashed=0;verticalLabelPosition=bottom;verticalAlign=top;align=center;html=1;fontSize=12;fontStyle=0;aspect=fixed;shape=mxgraph.aws4.resourceIcon;resIcon=mxgraph.aws4.auto_scaling2;" vertex="1" parent="1">
          <mxGeometry x="370" y="145" width="40" height="40" as="geometry" />
        </mxCell>
        <mxCell id="zX_aPd7AnAtp43NVW58V-29" value="Application Nodes" style="sketch=0;points=[[0,0,0],[0.25,0,0],[0.5,0,0],[0.75,0,0],[1,0,0],[0,1,0],[0.25,1,0],[0.5,1,0],[0.75,1,0],[1,1,0],[0,0.25,0],[0,0.5,0],[0,0.75,0],[1,0.25,0],[1,0.5,0],[1,0.75,0]];outlineConnect=0;fontColor=#232F3E;fillColor=#ED7100;strokeColor=#ffffff;dashed=0;verticalLabelPosition=bottom;verticalAlign=top;align=center;html=1;fontSize=12;fontStyle=0;aspect=fixed;shape=mxgraph.aws4.resourceIcon;resIcon=mxgraph.aws4.auto_scaling2;" vertex="1" parent="1">
          <mxGeometry x="370" y="230" width="40" height="40" as="geometry" />
        </mxCell>
        <mxCell id="zX_aPd7AnAtp43NVW58V-26" value="Amazon EKS" style="sketch=0;outlineConnect=0;fontColor=#232F3E;gradientColor=none;strokeColor=#ffffff;fillColor=#232F3E;dashed=0;verticalLabelPosition=middle;verticalAlign=bottom;align=center;html=1;whiteSpace=wrap;fontSize=10;fontStyle=1;spacing=3;shape=mxgraph.aws4.productIcon;prIcon=mxgraph.aws4.eks;" vertex="1" parent="1">
          <mxGeometry x="270" y="185" width="50" height="80" as="geometry" />
        </mxCell>
        <mxCell id="zX_aPd7AnAtp43NVW58V-38" value="" style="outlineConnect=0;dashed=0;verticalLabelPosition=bottom;verticalAlign=top;align=center;html=1;shape=mxgraph.aws3.vpc;fillColor=#F58534;gradientColor=none;" vertex="1" parent="1">
          <mxGeometry x="240" y="122.5" width="40" height="50" as="geometry" />
        </mxCell>
        <mxCell id="zX_aPd7AnAtp43NVW58V-41" style="edgeStyle=orthogonalEdgeStyle;rounded=0;orthogonalLoop=1;jettySize=auto;html=1;entryX=0;entryY=0.5;entryDx=0;entryDy=0;entryPerimeter=0;" edge="1" parent="1" source="zX_aPd7AnAtp43NVW58V-26" target="zX_aPd7AnAtp43NVW58V-28">
          <mxGeometry relative="1" as="geometry" />
        </mxCell>
        <mxCell id="zX_aPd7AnAtp43NVW58V-42" style="edgeStyle=orthogonalEdgeStyle;rounded=0;orthogonalLoop=1;jettySize=auto;html=1;entryX=0;entryY=0.5;entryDx=0;entryDy=0;entryPerimeter=0;" edge="1" parent="1" source="zX_aPd7AnAtp43NVW58V-26" target="zX_aPd7AnAtp43NVW58V-29">
          <mxGeometry relative="1" as="geometry" />
        </mxCell>
        <mxCell id="zX_aPd7AnAtp43NVW58V-43" style="edgeStyle=orthogonalEdgeStyle;rounded=0;orthogonalLoop=1;jettySize=auto;html=1;entryX=-0.002;entryY=0.363;entryDx=0;entryDy=0;entryPerimeter=0;" edge="1" parent="1" source="zX_aPd7AnAtp43NVW58V-22" target="zX_aPd7AnAtp43NVW58V-25">
          <mxGeometry relative="1" as="geometry" />
        </mxCell>
        <mxCell id="zX_aPd7AnAtp43NVW58V-46" value="Connect to AWS and&lt;div&gt;&amp;nbsp;provision Infrastructure&lt;/div&gt;" style="edgeLabel;html=1;align=center;verticalAlign=middle;resizable=0;points=[];" vertex="1" connectable="0" parent="zX_aPd7AnAtp43NVW58V-43">
          <mxGeometry x="-0.3548" y="1" relative="1" as="geometry">
            <mxPoint y="1" as="offset" />
          </mxGeometry>
        </mxCell>
        <mxCell id="zX_aPd7AnAtp43NVW58V-44" style="edgeStyle=orthogonalEdgeStyle;rounded=0;orthogonalLoop=1;jettySize=auto;html=1;entryX=1;entryY=0.5;entryDx=0;entryDy=0;entryPerimeter=0;" edge="1" parent="1" source="zX_aPd7AnAtp43NVW58V-27" target="zX_aPd7AnAtp43NVW58V-28">
          <mxGeometry relative="1" as="geometry" />
        </mxCell>
        <mxCell id="zX_aPd7AnAtp43NVW58V-45" style="edgeStyle=orthogonalEdgeStyle;rounded=0;orthogonalLoop=1;jettySize=auto;html=1;entryX=1;entryY=0.5;entryDx=0;entryDy=0;entryPerimeter=0;" edge="1" parent="1" source="zX_aPd7AnAtp43NVW58V-27" target="zX_aPd7AnAtp43NVW58V-29">
          <mxGeometry relative="1" as="geometry" />
        </mxCell>
        <mxCell id="zX_aPd7AnAtp43NVW58V-49" style="edgeStyle=orthogonalEdgeStyle;rounded=0;orthogonalLoop=1;jettySize=auto;html=1;" edge="1" parent="1" source="zX_aPd7AnAtp43NVW58V-48" target="zX_aPd7AnAtp43NVW58V-26">
          <mxGeometry relative="1" as="geometry" />
        </mxCell>
        <mxCell id="zX_aPd7AnAtp43NVW58V-50" value="Install FluxCD&lt;br&gt;to EKS&lt;br&gt;from terraform" style="edgeLabel;html=1;align=center;verticalAlign=middle;resizable=0;points=[];" vertex="1" connectable="0" parent="zX_aPd7AnAtp43NVW58V-49">
          <mxGeometry x="-0.5579" y="4" relative="1" as="geometry">
            <mxPoint x="-20" y="-54" as="offset" />
          </mxGeometry>
        </mxCell>
        <mxCell id="zX_aPd7AnAtp43NVW58V-52" style="edgeStyle=orthogonalEdgeStyle;rounded=0;orthogonalLoop=1;jettySize=auto;html=1;" edge="1" parent="1" source="zX_aPd7AnAtp43NVW58V-48" target="zX_aPd7AnAtp43NVW58V-51">
          <mxGeometry relative="1" as="geometry" />
        </mxCell>
        <mxCell id="zX_aPd7AnAtp43NVW58V-53" value="Monitor application&lt;div&gt;repo and install&lt;/div&gt;&lt;div&gt;&amp;nbsp;app to EKS&lt;/div&gt;" style="edgeLabel;html=1;align=center;verticalAlign=middle;resizable=0;points=[];" vertex="1" connectable="0" parent="zX_aPd7AnAtp43NVW58V-52">
          <mxGeometry x="0.4353" y="-2" relative="1" as="geometry">
            <mxPoint as="offset" />
          </mxGeometry>
        </mxCell>
        <mxCell id="zX_aPd7AnAtp43NVW58V-48" value="FluxCD" style="shape=image;imageAspect=0;aspect=fixed;verticalLabelPosition=bottom;verticalAlign=top;image=data:image/jpeg,/9j/4AAQSkZJRgABAQAAAQABAAD/2wCEAAMCAggICAgICAgICAgICAgICAgICAgHBwYICAgICAgICAgICAgICAgICAgICAoICAgICQkJCAgLDQoIDQgICQgBAwQEBgUGCgYGCg0OCg0KCgoNDQ4KDQ0ODQ0NCggKCg0ODQoNDQoLDQoNCgoKCg0QDQ0NDQ0KCgoNCg0NDQgKCP/AABEIA4QDhAMBIgACEQEDEQH/xAAdAAEAAwACAwEAAAAAAAAAAAAABwgJBQYBAwQC/8QAUhAAAgICAAMGAwQECgYJAwIHAAECAwQRBRIhBgcIEzFBIlFhFCMycUJScoEJJDM0NUNTYnO0NkRjg5GzFWSChJKTobHBGFTTlKLhJSZ00fEW/8QAHAEBAAMBAQEBAQAAAAAAAAAAAAUGBwQDAgEI/8QARhEAAgECAwQHBAgFAwMEAgMAAAECAwQFESExQVFxBhIiYYGRoTJSscETM0JicpKi8CM0c7LRgtLhFMLxFSQ1sxZTQ2Pi/9oADAMBAAIRAxEAPwDVMAAAAAAAAAAAAAAAAAAAAAAAAAAAAAAAAAAAAAAAAAAAAAAAAAAAAAAAAAAAAAAAAAAAAAAAAAAAAAAAAAHWO3PeZgcMrVmdlU40Zb5FZL7y7lW2qqo7sta+VcJMgnjnj94VW9UY2dkr2moVURf7rrY2JfnXv6EvaYReXi61ClKS45ZL8zyj6nFXvaFB5VJpPhnr5LUs6CsHBPH/AMKm0r8XOx17zcKbor66qtdjS+kN/Rk7dg+9Hh/E63Zg5VWQkk5xjLV1O/RW0y5bam/lZCIu8IvbNdavSlFccs1+ZZx9T8oXtCu8qc03wzyfk9TtIAIg7gAAAAAAAAAAAAAAAAAAAAAAAAAAAAAAAAAAAAAAAAAAAAAAAAAAAAAAAAAAAAAAAAAAAAAAAAAAAAAAAAAAAAAAAAAAAAAAAAAAAAAAAAAAAAAAAAAAAAAAAAAAAAAAAAAAAAAAAAAAAAAAAAAAAAAAAAAAAAAR/wB7Xflw/g1XPl27tkm6cWpc+TkNfqw2lCO+jttcK0+jltpP3oUKlxNUqUXKT2JLN/vj5nnUqQpRc5tJLa2d9ttUU5SaSSbbb0opdW230SS6tsqp33+OCjH58bg6jlXeks2WpYdLe9+Sk95M49Ovw0raalbqUFXXvr8S/EONOVU5fZsHb5cOpvVkemnk2dHfL35dQqW18DcVNxIbBgvQuFPKtf5SltVNPsr8TXtPuXZ75IpN/jsp5wt9F7298lu57e5HJdo+0uRmXTyMq+zIvn+K22XNJ/RLpGEV7QhGMI+0UcaAalGKilGKSS0SSySXcloipNtvN7QffwHj9+LdDIxrrMe+vrC2qXLOP0+UovS3CSlCXo4tdD4AJRUk4yWaejT2P/ITy1Rd7uQ8cVV3JjcZUce30jnRSji26S158f8AV5Pr8aTp6bbp2olsaL4yipRalGSUoyi1KMotbTTXRprqmujRjgSr3K+I/iHBJRrqkr8Lm3PDtb8uKb+J481t0Te99FKuT9YNvmWX410MhVzrWGUZbXTfsv8AC/svu9nvii2WOOyhlC41Xvb1zX2ue3mafAjruh7+eH8ar5sW3lvhFO7Et1DJo3rry71ZDb15tTnXvptNOKkUx64t6tvUdKtFxktqayf74PftLtTqwqxU4NNPegADnPUAAAAAAAAAAAAAAAAAAAAAAAAAAAAAAAAAAAAAAAAAAAAAAAAAAAAAAAAAAAAAAAAAAAAAAAAAAAAAAAAAAAAAAAAAAAAAAAAAAAAAAAAAAAAAAAAAAAAAAAAAAAAAAAAAAAAAAAAAAAAAAAAAAAHozs6FUJWWThXXBOU5zkoQhFdXKUpNRikvVtpIjjvk8QvD+Cw/jE3bkyW68OlxlkWb9JS21Gqv52WNbSfKpvUXQXvh8QnEeNTayLPKxU068KltUQ16Ox9JZE/71nwppOMK+u7hg3Rm5xLKo+xS99rb+FbZc9I9+ehCX2LUrXsrtT4Ldze7lt7stSw3ff45Yx58bgqjZLrGXELFuqD3r+LVNfevW9XWarT04wuT2qc8X4vbkWzvvtsuuse522zlZZN/WUm3peij+GK6JJJI+QG44ZhFthsOpbx13yespc38lku7aZ/dXlW6l1qr5LcuS+er7wACaOIAAAAAAAAA+nhvErKbIXU2WU21y5q7apyrtrl84zi1KPyen1W09ptFwu4/xyp8mNxpKPpGPEK4/C+ul9qpivg9t3VfB6uVdaTm6aAhsSwm2xGn1LiOb3SWko8n8nmnvWw7bW8q2sutSfNbnzXz295sVw3idd1cLabIW1WRU67K5RsrthJbjKE4txlFrqmm0z6TLLug7/OI8Fs3jWeZjylu3DtbePbv1cfWVFj6/eVa2+s426SL89zHiN4dxqKjTN0Zai3Zh3OKvio63Otp8t1XVPnrbaTXPGtvlWH410YucOzqR7dL3ktV+JfZ56x789C/2OLUrrKL7M+D38nv5be7eSoACmk4AAAAAAAAAAAAAAAAAAAAAAAAAAAAAAAAAAAAAAAAAAAAAAAAAAAAAAAAAAAAAAAAAAAAAAAAAAAAAAAAAAAAAAAAAAAAAAAAAAAAAAAAAAAAAAAAAAAAAAAAAAAAAAAAAAAAAAAAAAACIO+zxN8P4NGVcpLKzuXcMOqa5ot/heRZqSx4P13KMptbca56Z12tpWu6ipUIuUnuXxe5Jb29FvZ41q0KMXOo0l+/N8FtJT4vxmrHqndfZCmquLlOyyShXCK95Sk0kU177/HJKfPjcE3CHWMs+2DU5LWv4rTNLk6+lt8W+j1UtxmV/wC9nvu4hxm3ny7dVRk3Vi1NxxaOvR8m/vLEv62zmn68vInyroRs2C9DaVvlVvcpz29X7Eefvv8AT3PRlGv8cnVzhQ7MeP2n/tXr3rVHuzMydk52WTlZZZJzssnJzssk/WU5yblKT+bbZ6QDSUstEVYAA/QAAAAAAAAAAAAAAAD2Y+RKEozhKUJwkpQnCThOuS9JQlFqUZL2lFpo9YPwFtu5Dxx2VcmNxrmtrWoxz64OV1a1/rNUE/NW/wCspgp9VuufxTLncD47Tk1Qvx7a7qbIqULapKcJp+6lFtfu9V6GPZ3nuq75+IcGt8zDuarlJO7Gs3PFyNevNXtcs2uitr5ZrptyS5Xm+NdDqNznVs8oVNvV+xLll7D5dnuWrLRYY3UpZQr9qPH7S/3L173ojVoENdyPii4fxlRq2sTO18WJbNbsa9XjWNRV8ffSUbYrrKuK6kymM3dnWtKjpV4OMlufxT2NPc1mnxLzRr068VOm01+/FPitoABxnuAAAAAAAAAAAAAAAAAAAAAAAAAAAAAAAAAAAAAAAAAAAAAAAAAAAAAAAAAAAAAAAAAAAAAAAAAAAAAAAAAAAAAAAAAAAAAAAAAAAAAAAAAAAAAAAAAAAAAAAAAAAAAAAAADjO0fabHw6Z5GVdXRRWtzsskowj+9+rfoorbb6JMiLvw8V2Bwjnor1mZ6TX2euWq6Ja6PJuSca/8ADjzWtfoxT5lQvvM72s/i9yuzrvM5XuqmCcMbG2tPyaty02t7nOU7Gm05taSvGC9FLm/yq1exS25tdqS+6nufvPTes9hX7/GKVtnCHanw3Lm/kteOW0nrvv8AG/fk8+NwdTxaPSWZOKWVcvfyYPaohJa+Of32m9RoaTKsW2uTcpNylJuUpSblKcn1cpSk3KUm+rk2236n5Bt+H4ZbYfT+jt4JLe9rl3t7X8FuSKDcXVW4l16ss3u4Lkt3x4tgAEocoAAAAAAAAAAAAAAAAAAAAAAAAAAB5hNppptNNNNNxlFrqmmtNNPqmmmmWi7kfG3kYvJjcWU8vH3qOXFJ5lCbSXmx+FZFcV1cul6S/r3pFXARl/htvf0/oriCa3PfHvT2r4PemdVvdVbeXXpSyfo+a2P95GvvZftXjZtEMnEurvosW42Vy5ov5p+8ZR9JQklKL6NJ9DljJfu370s7hN/n4NzqlJrzK5Lnx8lLoo31bSml7SThZHryzjtl8O4/xb4HFuTHv1hZ76eTZL7nJa1/N7mlGTe+lM+W3pLUbFFzMRxroncWGdWjnUpbc0u1FfeS3L3lpvajsL7Y4zSuMoVOzPZ3Pk+/g9dyzJ4ABRSwgAAAAAAAAAAAAAAAAAAAAAAAAAAAAAAAAAAAAAAAAAAAAAAAAAAAAAAAAAAAAAAAAAAAAAAAAAAAAAAAAAAAAAAAAAAAAAAAAAAAAAAAAAAAAAAAAAAAAAAAAAr335eMLC4Y542Io52ctxcYy/iuJL/b2p/FJf2NW5bWpSp2pHfZWFe9qKlbwcpeiXFt6Jd75HNcXNO3h16ryXx5LayaO2PbbE4fRLJzL68emPTnseuaT9IQitysnL2hBSlL2TKO9+HjSy87nxuGc+FiPcZX75c7Jj9HH+awfVarlK1rT8yvbgoO7fd4+bxS95GdfK+zryRfw00Rb3yU1R+CuK9NpOctJylN9TrZteC9EKFnlVucqlTbl9iL7k/afe/CKepQ7/GqlfOFLOMP1Pm1s5Lz3B+79222/dtvbbfu2+rb6tgA0ErgAAAAAAAAAAAAAAAAAAAAAAAAAAAAAAAAAAAADQABY/uP8ZuZw/kx+I8+dhrUVa5c2dix1rpOb/jMF0+C2UbEt6slqNZeTsR2+w+JURycK+u+qXvB/FXLW3C2D1Oqxe9dkYyXyMjDsPYbvAzOGXrJwb50W9FLXxV3RT3yXVvcLIeq1Jc0eZuMoN8xQMa6I297nVt8qdXbs7En3pey3xXjFvUsVjjNWhlCp2ofqXJ7+T8GthrkCuncb4yMPiXJjZyjg5r6Jyl/E8qW9JVWSe65vo/Jt09vUZ26erFmJ31hcWNT6K4g4y9GuKa0a5F9t7mncR69J5r4c1tQABHnSAAAAAAAAAAAAAAAAAAAAAAAAAAAAAAAAAAAAAAAAAAAAAAAAAAAAAAAAAAAAAAAAAAAAAAAAAAAAAAAAAAAAAAAAAAAAAAAAAAAAAAAAAAAAADw2AeTrPb/ALycLhdDyM6+FFfVRT3Ky6Wt8lVcU52Tf6sIvS6vSTZBnfl40sXB58bhihm5a5oyt5t4WLJfC+aUXvIsi97qrlGKaalZB/C6Qdse2uXxC+WTm32ZF0t/FN/DXF6+CqC1CqtaXwVxim+r3JuT0LBeiFe8yq3OdOnty+3Lkn7KfF81FrUrN/jdOjnCj2p/pXjvfcvFombvv8YWdxPnx8PnwMF9Goy1mZK67822L1XCXT7ml76PmssUnBV9hBJaS0l6JdEjyDarKxoWVP6K3gox7trfFva33sotevUry69Rtv4dy3JAAHec4AAAAAAAAAAAAAAAAAAAAAAAAAAAAAAAAAAAAAAAAAAAAB4lFNafVP1T9GT53IeLzO4XyUZXNnYK6ck5bysaOkl5FsnqUI6/kbdrrqM6ktOBAcN5Y0L2m6VxBSj37nxT2p96PehXqUJdem2n+9HuaNae7vvPweK0LIwb43Q6c8fw3USa3yXVS1OuXr+JalrcXJaZ2oyE7JdsMrAvjk4d9mPdDWp1y1zpfoWRe4W1v3rsjKL+W9Mu33HeNjGzOTG4r5eFk9IxyN8uFkvourk9405P9GcpVv2sTkoLFca6H17TOra5zp7cvtx5pe0u9a8Ypal7scbp1soVuzLj9l/45Pz3FoAeIy31XVP0+p5M8LMAAAAAAAAAAAAAAAAAAAAAAAAAAAAAAAAAAAAAAAAAAAAAAAAAAAAAAAAAAAAAAAAAAAAAAAAAAAAAAAAAAAAAAAAAAAAAAAAAAAAAAAfi25RTlJqMUm220lFLq22+iSXq2VW78PG9Rj8+Nwfkyr1uMsuScsOh+/lJNfaZr2kmqU9Pmt04Eph+GXOIVPo7eDb3vYo97exfF7EmzjubulbR61V5cFvfJb/3mT33md7eBwinzs25V72q6o/HkZEkt8tVSe5P5yeoR9ZSiupQvvu8V2fxfmpqcsLAfT7PXL77IW9/xm6PVp+9NbjXral53RkR9o+0mRmXTycq6zIvs/FbbLmk0vSK9oQjt8tcFGEd9EjjTb8F6K22H5VKuU6u3Nrsxf3U+HvPXelHYUG+xerc5xj2YcE9XzfyWm55nhI8gF4IEAAAAAAAAAAAAAAAAAAAAAAAAAAAAAAAAAAAAAAAAAAAAAAAAAAAAAAAAAmjuR8U/EODuFMm8zATSeNZL46I+7xrXtw1/ZT5qnrSVTbmX07rO+PA4xT52FdzSiou2ieoZOLJ/o217euu0pwc65afLOS6mUZ9/AeP34t0MjGusovre4W1S5Zx9Nr5Si9LmhJShNdJRkuhSca6LW2IZ1KfYq+8lpL8SXH3lrveewnbHF6ttlGXahw3rk/ls5bTYQFS+5DxxU3cmNxnkx7fSOdBOOLb16K+HxPHnr1s26W023TuMS2FGRGcVKMlKMknGUWpRkn1TTXRp+zRh+I4Xc4fU+juI5cHtjLvT2P4rekX+1vKVzHrUnnxW9c1+1wZ7AARR2AAAAAAAAAAAAAAAAAAAAAAAAAAAAAAAAAAAAAAAAAAAAAAAAAAAAAAAAAAAAAAAAAAAAAAAAAAAAAAAAAAAAAAAAAAAA9OZmQrhKyyUYQgnKc5tRhCK6uUpPSSS9W3o/Us9ED3HQO9nvw4fwarny7fvZJurFq1PKyNdPgr2tQ3pOybjXFtbktpOvvfj444xU8bgupz6xlxCcU6oe28WuX8rJeqttj5Xo1G5MpzxjjF2RbO++2y662XNZbbJzssf1k/ZeiitRitJJJJLSsF6G1bjKre5wht6n25c/cX6u5aMql9jkKecLftS977K5e98O96olDvq8TPEONOVcpfZcLfw4dM3y2L2eTZqMsh+/I1GpPWoNx53EYBstra0bWmqVCKjFbl8Xvb4t5t8Sj1as6snOo2297/AHpy2AAHWeQAAAAAAAAAAAAAAAAAAAAAAAAAAAPu4VwK+/fkU3Xaen5VU7eV+unyRen9GSr3B9zEc9vKyk3i1y5YV7a+1WL8SbWmqoektNOUny7SjLdr8LChVCMK4RrhFajCEVGMV8klpIqWJ9IIWk3Spx60lt1yS7u98eHHPNKZtcNlWj15PJbtNX/j99xn5xXgF9GvPoup29J21TqTfyTnFJv6I+A0Ty8WNkXCyMZwktSjNKUZJ+zT2miqvf8A9y0MHWXiRaxpz5bKt7WLOX4XD38qb2tN/BLUV0lFR/MN6QwuqipVI9WT2a5pvhxT4bc+OeSa6w2VGPXi80tumq/z3/vKFgAW4hgAAAAAAAAAAAAAAAAAAAAAAAAAAASt3L+JLiHBZKFcvtOHvcsK6T8uK1pvHs1KWPL0eoxlW3vdbcuZRSDlubWldU3SrxUovamv201ua1W5nrSqzpSU6baa3r968thqf3Rd+/D+NV82Lby3RipXYluo5NG+nWG2pw3tKytyg/mn0JEMduF8UtoshdTZOm6uSlXbXJwsrkveMotNfJr0a2mmm0XB7j/HIvgxuN9H+GPEK4ajL5faqoL4G/e2mPJ8661uRjeNdDatDOrZZzht6n21y99fq7nqy8WOOQqZQuNJe99l8/d+HetEXIB8+BnwthGyqcbK5pShOElOE4v0lGUW00/mmfQZm008mWsAA/AAAAAAAAAAAAAAAAAAAAAAAAAAAAAAAAAAAAAAAAAAAAAAAAAAAAAAAAAAAAAAAAAAAAAAAAAAAAAAAAAAAfHxjjNWPVO6+2FNNcXKy22Ua664r1cpSaSX5spv34eOOU+fF4KnCPxRnxCyPxy9v4rVNPS9dXWrf6tfpMmsMwe6xKfUoR03yekY838lm3uRwXd9StY51HruS2vkvns7yw/fH4heHcFh/GLPNyZLdeHS1LIs6PTkvw01vX8pa4xfouZ9HQTvj8QfEeNzayJqrFTTrwqXJUR5XuMrW9PIsT0+eaUU0nGFb3uOs3NnZOdls52WWPmnZZKVllkn+lOcm5SfotybfRHpNywboza4blP26vvtbPwr7PPWXfloZ/fYpVuuz7MPdT283v5bO7eAAW8hgAAAAAAAAAAAAAAAAAAAAAAAAAAAAAAct2U7NWZmTTjVL47pqO/VQj6zm/7sIJyfz1r3RxJaXwwd3fk0PPtj97kx1Rv1hj73zL5O6WpfsRh+syJxO+Vlbyq/a2RXGT2eW18jstLd16ihu2vl/wA7ETD2b7P14tFWPStV0wUI/N69ZS+cpy3KT95Ns5IAxSUnJuUnm282+/eXtJJZIHw8d4LXk020XR5q7oSrmvfUlraftJeqfqmk/Y+4CMnFpratUGk1kygPbLsrZg5N2Lb+KqWlLWlbB9YWR+kotPpvT3H1izhS1viZ7uftGMs2qO7sVfeJLrbjb3L09XTJ+YvXUHZ80VSNqwu+V7bqp9r2ZL7y2+D2rnluKLd27oVHHdtXL/jYAAS5xAAAAAAAAAAAAAAAAAAAAAAAAAAAAAAEjdz/AH+cQ4LP+LWeZjSlzW4drbx7Nv4pQ11otfX7yvo3pzjbpIv13M+Izh3GoqNM/Jy1HdmHc0ro/N1PpG+tP9OvetrmjW3ymX57MXJlCUZ1znXZCSlCyuUq7K5L0lCcWpQkvaUWmvmVHGejVriSc/Yq++lt/Evtc9H35aEzY4pVteytYe63s5Pd8O7ebHgpH3IeOOyrkxuMp21/hjn1x++h6a+00xSVkV13bUuf03XP4plzuCcdpyaoX49td9NkVKu2qcbK5xfvGUW0/wD4MNxTBrrDZ9WvHR7JLWMuT49zyfcX+0vqN1HOm9d6e1eHz2d59wAIQkAAAAAAAAAAAAAAAAAAAAAAAAAAAAAAAAAAAAAAAAAAAAAAAAAAAAAAAAAAAAAAAAAAAAAAAAAAcZ2j7TY+HTPIyrq6Ka1udlslCEfktv1k30UVuUnpJNvR9Ri5NRis29Elq2fjaSzew5MiLvq8TPD+Cp1zl9pzWk44dLXPHfpK+fWNEPf4tzkt8sJ6eq599/jfvyefG4OpY1D3GWbNOOVcn/YQenjR/vzTue+kaWk3VeyxtylJuUpScpSk3KU5Se5SlJ7cpSbbcm223ttmpYL0LnUyrX+cY7VTXtP8T+zyXa4uLKhfY6o5wttX727wW/ns5o733sd9/EOM2c+ZbqqMt1YtW4Y1HyajtuyxL+tscpevLyJ8q6EAbBQoU6EFTpRUYrYksl++PHaUudSVSTlNtt72AAe55gAAAAAAAAAAAAAAAAAAAAAAAAAAAAAAAAHcu6XsA+I5tdDT8mP3mRJdOWqL6xT/AFrJagvR9W/0WXjppUUoxSjGKUYpdFFJaSS+SXQjvuK7uv8Ao/Cj5kdZORq2/wCcOn3dX5Vx9V+vKZI5kGO4h/1dx1YvsQziu9/afjsXckXXD7b6Gnm/aer+S8Pi2AAVskwAAD8zgmmmk0000+qafRp/RopD3x93r4dmzqin5Fm7cd+3ltvde/nU/g+fLyP9IvAR/wB9vd3/ANI4UowS+0U7tx37uSXx1b6dLYrl9dKfJJ75SxYHiH/SXCUn2JZRl3cH4b+5sjL+2+mp6e0tV814/HIpODy1ro0010aa00/dNPqmvkzwbCUoAAAAAAAAAAAAAAAAAAAAAAAAAAAAAAAAAHee6rvn4hwa3zMO7VcpKV2NZueLk6WvjhtOM9eltThZ0im5RXK+jA8K1GnXg6dWKlF6NNZp+fpw2n3CcoSUoNprY08jS/uR8UPD+MqNW/sudy7liWyX3jX4nj2dI3w99JRsimnKEdrcyGNsJNNNNpxalGSbUoyi9xlFrTjKLSakmmmk1otH3H+NvIxeTG4tz5WOukcuKcsyhe3mx/1mK9OZauS9fOZkONdC5QzrWGq2um3qvwt+1yevByZdLDHU8oXOj97d4rdzWnci94OJ7Mdq8bNphkYl1eRTP8NlclKL+afvGS9HCSUovo0jljK5RlBuMk008mmsmnyZcE1JZrYAAfJ+gAAAAAAAAAAAAAAAAAAAAAAAAAAAAAAAAAAAAAAAAAAAAAAAAAAAAAAAAAAAAAAAHCdse2uLw+ieTmXwx6Yes5v8TfpGEVuVk5ekYQjKUn6JlHe/Hxp5Wdz43DOfCxHuMr3pZuSt6+FptY1cl+o3c0/xV6cSwYTgd1icsqMcoZ5Ob0iv8vuWvHJakZeYhRtF232t0Vtf+F3v/gsd34eK7A4Rz0V6zM9bX2aqaUMeWtr7ValJVeqflpStaafIluSoX3md7Wfxe7zs29zUXuqiO4Y2Muq1VUm0pabTslzWST05taS6f/8ALbf1be238231b92DdMH6PWuGLOC61TLWbWvgtkVy14yZn97iVa7eUtI7orZ4+8/2kgACzkUAAAAAAAAAAAAAAAAAAAAAAAAAAAAAAAAAAAACWvDn3dfbMv7RZHePiOM3v0sv9aofJqGvMkt+0E01Mi3h3D53WQqri5WWTjXCK/SlJqKX0W31folt+xezu77Fw4fiU40NNwXNZP8AtbZdbJ/k5dIr2ior2Kvj+If9LQ+jg+3PNLuX2n8lzz3Eth1t9LU6z9mOvN7l83/ydkABkhcgAAAAAAAACpPiT7uvsuUsqqOqMuTcklqNWRrc1/vVu1fVWfJEOl+e3fY+vPxLsWzorI/BP1dVi612L6xlp691te5RHi3CrKLbKbY8tlU3CcflKL0/zT9U/dNP3NZ6P4h/1ND6Ob7cMlzj9l+Gx8k95TsStvoqnXj7MteT3r5r/g+QAFqIgAAAAAAAAAAAAAAAAAAAAAAAAAAAAAAAAAAAA7b3bd6mdwm/z8G+Ve2vNqfx4+Slpauqb5ZPS0prlsivwzj1L4dx3i0weLclF2sLPel5Fk15WTLXX7Na9c7et+VNRsXsppcxnEeGis4v0ftcTWdRdWplpNLXx3SXc9eDRKWWI1rR9l5x3xezw4P9tM2UBn53H+M7MwOTH4j5mdhrUY2bUs7GXRLU5SSyK4/q2vzF11ZLUYF5OxPbzE4jRHJwr4X0y/SjtShL3hZCSU65r3hOMZL3RhmLYFdYZL+Ks4Z6TXsv/a+59+Wa1NBssRo3a7Dylvi9v/K7145bDnwAV0kwAAAAAAAAAAAAAAAAAAAAAAAAAAAAAAAAAAAAAAAAAAAAAAAAAAAAAAAejNzYVQnZZKMK64ynOcmowhCKblKTfRRik22/RH6lnoge8r734+MLC4Zz4+JyZ2dF8soRl/FsWXVPz7Y7Upxa60Vtz30k6tqRXvxBeL7J4jKeLw6dmLgdYysjuvJz16bcl8dNMvVVxcZyi/jaTdarjGOjW8E6F5pVsQ5qmn/e1qvwrxltiUu/x3bC2/P/ALV835bGdm7f94+bxS/7RnXyus6qEfw048X6xpqT5a4v31uUtJylN9TrQBrVOnClFQppKKWSSWSS7ktEU2UnJuUnm3q294AB6nyAAAAAAAAAAAAAAAAAAAAAAAAAAAAAAAAAAAAADnOxPZKzOyqcWvo7JfFLW1VWus7H9Ix9N+snFfpI85zjCLnJ5JJtvglqz6jFyaitr0Jq8Lfd1uUuJWx6R5qsVNestatuW/kn5UWvfzPkWSPi4LwevHproqjy11QjXCPyjFaW37t+rfq22/c+0xPEb2V5XlVezZFcIrYvm+9svltQVCmoLm+97/8AjuAAIw6gAAAAAAAAAV08Uvd10jxKqPpy1ZSS9vw1XP8AJ6qk/k6/1WWLPl4pwyF1dlNsVOu2EoTi/SUZLTX/AA9/Zklh97Kzrxqx2bGuMXtXzXekzmuaCr03B+Hc93/PcZ4g7B2+7Gz4fl24tnXke65v+tpk35dnousktS0tKakvY6+bbTqRqRU4PNNJp9z1RQpRcW4vatAAD0PkAAAAAAAAAAAAAAAAAAAAAAAAAAAAAAAAAAAAHYewveDmcMvWTg3zot6c2utV8U21C+t/DbDq+kusdtxcH8S68DzqU41IuE0nFrJprNNd6ejPqMnFqUXk1sa0aNCe43xkYfEeTHzuTBzXqK5paxMuTaS8myX8nOTa1Ra+bb1GdumyxRjXKO+j6p+3syw3cB4ucrhkq8bOnZl8Pb5dybsysFP9KuUtytqi/Wmcm4x35bXLGqeTY30LWTrYfzdNv+xv+1+EtkS42GOvSnc8uv8A7l814razQ4Hy8K4pXfVXdTONtVsI2V2QalCyE0pRlGS6OMk000fUZE008ntLonnqgAD8P0AAAAAAAAAAAAAAAAAAAAAAAAAAAAAAAAAAAAAAAAAAAAAAAAFRfHr3qSrqo4RTJxeQvtGXr3ojJxppf0tti5yXuqUn0m1K3RmR4tOMSu7RcS5n0plj0Vr9WEMWmTX5Oydk/wDtF66G2cbnEFKa0pwdTxzjGPk5dZd6RXsdrulbdVfakoeGTk/NRyfMiMAH9AmcAAAAAAAAAAAAAAAAAAAAAAAAAAAAAAAAAAAAAAAAAAAtj4aO7n7NjPMtjq/LS5E18VWNvcF9Ha15j9Ph8tNJxZBXcx3ef9I5sa5rePVq3Ifs4J/DV+dz+H9lTfsXbjFJJJaS6JL0SXol9EUPpNiHVirWD1eTny+yvHa+5LiWHCrbN/TS3aR5734bPPgeQAZwWcAAAAAAAAAAAAAAAiDxId3X2vE+01R3kYilLS9baPW2P1cNeZFevSSX4ioxow0Uq78e7v8A6PzZKC1j5HNbR8oJv7yr/dSekv1JQ+povRnEM07Sb1Wcoctsl4e0vHgVnFbbJ/TR5P5P5eRHgAL8V0AAAAAAAAAAAAAAAAAAAAAAAAAAAAAAAAAAAAAAAAAAud4CO9WclkcIunzKuLysPb24wcuXIqX9yE512RW+jssXoopXFMwPCzxWVPaDhjT0p3WUy+sbce6Ov/Fy/l6+xp+YB0zs42+IdeCyVSCqP8Wcoy8+r1n3tmjYFXdS26r+zJx8Mk15Z5LuWQABQyxAAAAAAAAAAAAAAAAAAAAAAAAAAAAAAAAAAAAAAAAAAAAAAAAAzV8YvZyWP2gzZP8ADlQx8qvp+i6IUS6+782ix/vRpUVt8a/c1PPwoZ2NBzysBTc4RTlO/En1tjFLrKdUlG2K03yq2MU3NJ3Tolfxs8QX0jyjOLpN8G3Fx/VFLuzzIHGrZ17Z9Vaxan5Jp+jb8DP4HiMt9V1T/wDU8n9DmagAAAAAAAAAAAAAAAAAAAAAAAAAAAAAAAAAAAAAAA8xi20km23pJdW2+iSXu2+iR4Jl8NPd19pynmWx3RiSXJvXLbkNbiv9ymrH0/E6+v4kcd3dQtaMq09iXm9y8Xp6nvRpOrNQjvf/AJfgTt3L93i4dhQhJL7Rbq3IfvztdK9/KqL5OnRy5n+kd9AMPr1p16kqs9sm2/3wWxF9pwVOKhHYlkAAeB6AAAAAAAAAAAAAAAA6T3wd3y4jhWUpLz4fe40n01bFPUW+uo2JuEuj1tS1uKO7A9qFaVGpGpB5STTX7+J8TgpxcZbGsjOmytptNNNNqUWtOLT0017NNNNezPyTd4nO7ryMhZ1Ufusp6tS9K8hJ9forYrfy54z95ohE3Czuo3VGNaGxrZwe9eD/AMlBr0XRm4S3eq3PxAAO08AAAAAAAAAAAAAAAAAAAAAAAAAAAAAAAAAAAAAAGwCYPCRwCWR2gwNLax3dkz+UYV0zgm/97bWl/ekjTMrF4IO5qeFiWcSyYyhfnxgqa5LTpxI7lCTXrGeRKXmNPqq4U7UXzos6fz10vv4XeINU3nGnFU8+LTlKXk5OPhmaTglu6NtnJaybnl3ZJLzST8cgACkk+AAAAAAAAAAAAAAAAAAAAAAAAAAAAAAAAAAAAAAAAAAAAAAAAAAAVD8Qngs86dmdwdQhZLc7sB6hVbNvcp409qNU5dW6ZJVylpqVXxc1MuKcLtosnTfXOm6uXLZVbGVdlcl7SjJJrfqnrTWmtppmxJHfe73EcP41Xy5dXLdBNU5VXwZNDa9pelkN9XVap1tpPl2k1peCdMalslRvc5QWil9qK7/fS/MuL0RVL/A41M6lvpLa47ny91+nctWZYAlbvr8N/EOCOVlsVkYW9Qzak+SKf4VkQe3RNvp1cq5PWrG5cqik2a2uqV1TVWhJSi9jT9OKa3p6reij1aU6UnCommtz/evPYAAdR5AAAAAAAAAAAAAAAAAAAAAAAAAAAAAAAAAH2cG4PZkW10Ux5rbZqEI/OT+fyiluUn7RTfsXw7E9kq8HFpxausao/FLWnbY+s7H9Zy2/otL2IU8LXd1qMuJWx6y5qsVP2inq2385STri/kp/rFhzL+kmIfTVf+ng+zB698v/APOzm5dxbMLtupD6WW2Wzl/zt5ZAAFMJwAAAAAAAAAAAAAAAAAAAAA4ftf2Xrzca7FtXwWx1vW3CSe4Tj/ehNKS/L6lD+P8AArMW+3HuXLZTNwkvZ69JR+cZrUov3i0zQggDxR93XPXHiNUfjqSryUvWVTeq7Pzrk+WT/Ukm3qsuPRzEPoa3/TzfZm9O6W782zn1SExO2+kh9JHbH4f8bfMrMADUipAAAAAAAAAAAAAAAAAAAAAAAAAAAAAAAAAAAlHuY8O3EONyU6IqnDUtTzLk1V0epRoiuuRYntai1BNNSsg1o5bm5pW1N1a0lGK2tv8Aebe5LV7ketKlOrJQgm29y/fmyNcDAstnCqquy22x8tdVUJW22S+UIQTlJ666SfRN+xcnw++Cp1zrzeMqEpR1Orh61ZCMvVSy5dY2NdGqIbgmvinZ+BT13P8AcDw7gtesavnyJRSty7tTyLvTaT0lVW2t+VUoQ31ak9yckmN430yqXCdGyzjDY5v2pcvcT/N3rVF3sMDjTyqXGstqjuXP3n6c9GeEjyAZkWwAAAAAAAAAAAAAAAAAAAAAAAAAAAAAAAAAAAAAAAAAAAAAAAAAAAAAAAAA/F1KknGSUoyTUoyScZJ9Gmn0aa6NMqf33+B6m7nyeDcuPbrcsGTUcW1rf8hL/V5v2g26OiSVPxSLZglcOxS5w+p9Jbyy4rbGXc1sfxW5o47q0pXMerVWfB71yf7XFGPnH+z1+JdPHyqbMe+t6nVbHlnH5P3Uov8ARnByhJdYykupx5q73odznD+MU+Vm0Kcopqq+OoZOM3pt1Wpc0U2k5QfNXPS5oy0UK77vCxxDg/NdFPMwV1+01QfPQtv+c1LmdaS1u6LdT9W6tqBuGC9KrbEMqdTsVfdb0k/uv/teu5dbVlAvsIq22co9qHHeua+a045bCFwEwXYggAAAAAAAAAAAAAAAAAAAAAAAAAAAfi2Wk38k2fs8SQR+M0G7L8MjTjY9MFqNdNUEl8owS/8AX1OTOkdzfbSOdw+ixNeZXFU3x31hZWlHb+Ssio2LftL6M7uYLc0506s4VPaUmnzz+e00WlKMoKUdmSyAAOY9AAAAAAAAAAAAAAAAAAAAAAfDx3h0bqLqprcLarK5L5xnBxf/AKM+46h3r9s44ODfc2lY4Sqoi/Wd1kXGGl6tR/HLXpGL9D3oQnUqRhT9pySXPPQ86klGLctmTzKLOOunrrpv56B4ijyb4Z2AAAAAAAAAAAAAAAAAAAAAAAAAAAAAAD7eCcDuybYUY1Nl99j1CqqLnZP09l6RW1zTk1GK6ycVtkqdyXhg4hxlxt08TB2t5d0JffR9f4rW+V37XTzdqlN/im4ygX37qu5Xh/BqvLw6UpySVuRPU8rJ11+8t0nyptuNceWuG3yxRSsa6U22HZ04dur7qekfxPd+Fa8ctGTljhNW6yk+zDi9r5Lfz2c9hAHch4HK6+TJ4043WfijgQalj1+nTJmv5eS964NU+qfnLTLa42NGEYwhGMIRSjGMUoxhFLSjGK0kkuiSWke0GH4jitziNT6S4lnwWyMe5Ldz2ve2X+1s6VtHq0lze983+1wQABEnaAAAAAAAAAAAAAAAAAAAAAAAAAAAAAAAAAAAAAAAAAAAAAAAAAAAAAAAAAAAAAAADxKO+j6p+q9meQAVg78fBRjZnmZPCuTDynzTlQ9xwsmT6vUUpPGm/nVHy22269tzKRdreyGTgXzxcymePfDq4TX4o70pwktxsrl7Tg5RfpvaaWvh1bvD7ssHitDx86iN0OrhL8NtEmtc9Ni+OueveL6ro01tGh4L0wr2mVK6zqU9mefbjyb9pLg9eEktCs3+CU62c6OUZcPsvy2PvXlvMlQT333+EPO4VzX4vPn4K6ucIp5eMv8Ab1QXxxXvdTHlS6yhUlzOA4y31XVf+5tVnfUL2mqtvNSj3bnwa2p9z58CiV6FShLqVE0/3qtzR5AB3HgAAAAAAAAAAAAAAAAAAAAAAAAdk7Cd4OTw67zseet6VlUutV8V+jOPrtesZxalF+j05KVhOCeLHClFfaMfJpnrryKu6rfyjLnhP/jWvzKrgh73Cba8fWqx7WzNPJ+O5+KO2heVaKyg9OD1X/Bbr/6pOF/9a/8AJX/5B/8AVJwv/rX/AJK//IVFBF//AIzZ/f8Azf8AB1/+q1/u+X/JcLD8TfCZvTnfXv3nRLl/e4Oev3pEj8E49Tk1q3HthdXL0nXJSjteqevSS94vTXukZ7HZ+7zvAv4bkK+ltxbSuq/RyK0+sWvTnS3yT9Yy+ack+G76L0nBu3k1LhJpp92xNc9fmuiji0+tlVSy4ravjn+/G+IPl4XxKF1Vd1b5q7YRsg/nGaUk/wDgz6jN2mnk9paE8wAD8AAAAAPRn50Kq522PlhXCVk5P0jCEXKT/ck2fqTbyQPTxjjdOPW7b7YU1x9Z2SUYr5Lb9W/ZLbfsmRtm+JrhMG0rLrNe9dEuX9zm4b/dsrT3ld413EsiVtjaqi5LHp/Ror9un9pJac5ere0tJRS6maPZ9F6fUTuZPrPdFpJd2xtvy+brFbFpdbKkllxe/wDwW6/+qThf/Wv/ACV/+Qf/AFScL/61/wCSv/yFRQd//wCM2f3/AM3/AAc3/qtf7vl/yWp4z4sMGMX5FGTdPXTnjXTXv5Slzzmv+zXIr92/7xsniV3m5ElqO1VVDpVRF+qivVyfTmnLcpdPRJRXVwSlnhNtZvrUo9ri3m/DcvBHJXvKtZZTenBaf+QACYOIAAAAAAAAAAAAAAAAAAAAAAAAA8Slrq//APRO3ch4Ss/i3Lfep4OC9NXTivtGTH/q9UuqT9rrYqvTTjG5bS4by9oWdN1biajHv39yW1vuWp70aFSvPqU02/3q9yXeyHuzHZbJzb4Y2JTZkXz241VrcuVaTnJtqMIR2uaycowjtba2i7Pcd4JMfF5Mnizhl5K1KONFuWFjv259qLyZr354qpP0hJxU3PPdv3V4PCaPIwqI1xenZY/ivyJJa57rH8U5fL0jH0jGK6HbTF8a6YV7vOlaZwp7M/ty8V7KfBa8ZZaF6sMEp0cp1u1Lh9lf5fPTu3n5rgkkkkklpJdEkvRJeyR+gDOizgAAAAAAAAAAAAAAAAAAAAAAAAAAAAAAAAAAAAAAAAAAAAAAAAAAAAAAAAAAAAAAAAAAAAAAAAAAArp34+DbC4jz5GDyYGa9ylyw1iZcm3J+bVHXl2Tbe76lzNvmnC7SRYsEhY4hcWNT6W3m4v0fc09GuZzXFtTuI9SrHNfDk9qMjO3PYDM4Ze8bOonRat8rabqvitbnRbrkuh1W5QbcW+WShLcV18107b9gsPiVEsbNohfTL9GW1KEvRTrnFqdVi9p1yjJezKNd+HgxzMDnyOHc+dhrcpV65s7GXV9YRilkVxX6da8xe9b05vbMF6XW97lSuMqdXZt7En3N+y3wfhJvRUK+warb5zp9qHLtLmlt5ryRXAHiE01tPa+a9DyX8roAAAAAAAAAAAAAAAAAAAAAAAAAAAAABdTw+ZLlwfD315VdBfsxyLVFfujpL6JEiEbeHT+h8X88j/MWkkmG4jpd1v6tT+5l/tfqYfgj8EAARx0gAAA6J36ZDjwnNa6bqUX+U7IRl/xi2jvZ0Dv7/ojN/Yh/zqzvsNbql/Uh/cjnuPqp/hl8GUmABuhn4AAAAAAAAAAAAAAAAAAAAAAAAAAAAPE5pLbaSXq30SAPJzvYrsLl8RvjjYVE8i162oL4KYvf3l1j+Cqvo/im0m1qPNJqLmvuP8G+bxHkyM/nwcJ6kotazcqOtrkrkmqK5enmWrn9dV6amXo7Cd3uHwyiONhUQoqj663Kdkvedtkm52TfvKcm/wD2KDjXS23ss6VvlUq7NvZi+9ra17q5OSehYbHBqtxlOp2YctXyT2c34JohHuO8GOHw/kyeIeXnZi1KMHHeHiyTTXJXL+Wsi0mrrYrT6xhBrbsgkeQYnfYhcX1T6W4m5PdwS4JLRLlzL7b21K3j1KUcl6vm9rAAI46gAAAAAAAAAAAAAAAAAAAAAAAAAAAAAAAAAAAAAAAAAAAAAAAAAAAAAAAAAAAAAAAAAAAAAAAAAAAAAAAAAAACCe/LwlYPFufIp1hZ73Lzq4LycqWun2qpa536fewcbV7uaXI6Hd4/dZncJv8AIzqJVNtqq1fHj5KX6VNq+GXTq4PlsivxQiaznE9qOyeNm0yx8uivIonrmrtipx2vSS31jOL6xnFqUX1TT6l6wXpXcWGVKtnOlsyb7UV91vcvdem5OJXr/BqVxnOn2Z+j5r5rxzMggWi78PBLkYnPk8J58vHXWWI9zzKF7+U/9aiv1dK7Xp5zZV6cWm0004txlFpqUJRepRknpxlFppxaTTTT0bdYYlb39P6W3kmt62OL4NbV8HubWpQri2q28upVWT9Hye/95pHgAEmcoAAAAAAAAAAAAAAAAAAAAAAABc/w6f0Pi/nkf5i0kkjbw6f0Pi/nkf5i0kkw3Ev5ut/Vqf3Mv1r9TD8EfggACOOoAAAHQO/v+iM39iH/ADqzv50Dv7/ojN/Yh/zqzvw/+apf1If3I57j6qf4ZfBlJgAboZ+AAAAAAAAAAAAAAAAAAAAAAAAAEvRerbSSXVtt6SS9W2+iS6tlm+4/wU5Wb5eTxTnw8V6ksbTjnZMWvSe9fZIvpvmjK5rmXLS9TI2/xG3sKf0txNRW7i3wS2t+i2tpanTb21S4l1KSzfou9vd+8k3oQZ3fd2WdxW7yMHHldJa8yf4KMeLaXPdbL4YJb3y/FZNJ8kJtaL3dxvhDwuFOGRkuOdnx+JWzhrHxZe32ep71JLp51jlNvbj5SlyKY+yPY3FwKIY2HRXj0w9IVx1tv1lN/inOT6ynNynJ9W2zmjEsa6WXF9nSoZwpbMk+1Jfea2J+6tNzctC+2GDU7fKdTtT9FyW/m/BLUAAoZYgAAAAAAAAAAAAAAAAAAAAAAAAAAAAAAAAAAAAAAAAAAAAAAAAAAAAAAAAAAAAAAAAAAAAAAAAAAAAAAAAAAAAAAAAAAAAAQ333eF7h/GVK3X2XO5dRy6kvjfssivpG+PTW3qyK2ozjt7mQHZa3da0qKrQk4yW9fB7mnvT0fA8K1CnWi4VEmv35PvMpO9XuZ4hwa3y82rUJycacmtueLk6XNqE9JxnrbdVkYWfDJpSiud9HNheN8Dpyap0ZFVd1NkXGyq2KnXZF+0oyTT/+CmHfj4HbKufJ4LzXV/ilgWSXnV9ev2a2birIpdfKtfmevLOx8tZs2C9MaNzlSvMoT2db7EuefsPn2e9aIot/glSjnOhnKPD7S8va8Ne56sqSD2ZWLKEpQshKuyDcZ12RlCyuS9YzhJKUZL3jJJo9ZpCeZWAAD9AAAAAAAAAAAAAAAAAABc/w6f0Pi/nkf5i0kkjbw6f0Pi/nkf5i0kkw3Ev5ut/Vqf3Mv1r9TD8EfggACOOoAAAHQO/v+iM39iH/ADqzv50Dv7/ojN/Yh/zqzvw/+apf1If3I57j6qf4ZfBlJgAboZ+AAAAAAAAAAAAAAAAAAAD90USnKMIRlOcnyxhCLnOcn6RjCKcpSftGKbfyPwH4O591/dBn8YudWDTzqLSuvsbhjY2+v3tmn8WuqrrjOxpp8uuqn7uP8D91/Jk8Z5seralHBhJefcvb7RZFtUxfvXW3br1lU9xLo9n+z1GJTDHxqq6Ka4qMKqoqEIJfJL3fq2+rfVttmc410xo2udKzynU2db7EfL23y0+89UWexwSpWynWzjHh9p+fs+OvdsZE3cj4V+H8H5bpL7Xna65Vq+Gpv1WPVtxqXtz/ABWtb3PT5VNQBi93eVruo6teblJ738EtiS3JadxeqNCnQj1KaSX7833gAHGe4AAAAAAAAAAAAAAAAAAAAAAAAAAAAAAAAAAAAAAAAAAAAAAAAAAAAAAAAAAAAAAAAAAAAAAAAAAAAAAAAAAAAAAAAAAAAAAAAAAAAABFffN4cuHcai5XQ8nLUdV5lMUro6T5Y2ror6ot/wAnY+m3yyrb5ig3fB3CcQ4LZrJr8zHb1Xm0xk8azb1GM31dFr/srH1e+SVqTkamnz5/D67YSrthCyuacZwnFThOL9VKMk00/k0XHBuk9zh2VOXbpe43s/C/s8tV3Z6kHfYTSuu0uzPilt5rfz29+4x0Bcrvw8DS1PJ4J0fWUuH2T+GXVt/ZbZv4X8qbpcntGytJRKfcT4ZZRbZTdXOq6qThZVZFwsqkvaUXpr5r2aaa2mm9xw3FrbEafXt5ZvfF6SjzXzWae5lAurOray6tVcnufJ/Lb3HzAAmTiAAAAAAAAAAAAAAALn+HT+h8X88j/MWkkkbeHT+h8X88j/MWkkmG4l/N1v6tT+5l+tfqYfgj8EAARx1AAAA6B39/0Rm/sQ/51Z386B39/wBEZv7EP+dWd+H/AM1S/qQ/uRz3H1U/wy+DKTAA3Qz8AAAAAAAAAAAAAAAA9+BgWW2QqqhO22ySjXXXFzssk/0YQinKT9XpL0Tfsy3ncf4Gm+TJ429LalDh9U/Va3rLuh6NSfWmibXwrmtkpSrUPiWK22HU+vcSy4RWspcl89Et7R2WtpVuZdWks+L3Lm/2+CK+90fcXxDjVnLiV8tEWlbmWqUcarrqSUkvvrY9X5Ve2mkpOpSUi/Hct4auHcFip1x+0ZjTU8y6KdvX1jTHrGivolyw+JpLmnY+pJ/C+FVUVwpprhVVXFQrrrioQriuijGMUkkvkkfWYfjXSi5xHOnHsUvdT1f4nv5aLub1L/Y4RStspS7U+L2Lkt3Pb37gACmE6AAAAAAAAAAAAAAAAAAAAAAAAAAAAAAAAAAAAAAAAAAAAAAAAAAAAAAAAAAAAAAAAAAAAAAAAAAAAAAAAAAAAAAAAAAAAAAAAAAAAAAAAAAAAAAACO+93uI4fxqrlyq+W6MWqcurUcmjfsptNThtJuuxSg/kn1UiA6Le4qW9RVaMnGS2NPJ/vjx2HlUpQqxcJpNPczMLvo8N3EeCylOyH2jC38GbTF+Wk+qV9e5Sx5e25N1N61Y3LlUUmx+RjxnFxlFSjJNSjJKUZJ9GmntNNeqZU7vv8DtV3Nk8G5Me31lgzbji2/PyJ9fs0telfK6W0kvJ25Gw4L0zhVyo3+UZbFUS7L/EvsvvXZ7oopN9gUoZzt9V7u9cve5bebKQg+/j3AL8W6ePk02Y99b1Oq2LhOPVpPT6ShLT5bIuUJrrGUlpnwGoRkpJNPNPVNbyptZaMAA+j8AAAAAAAAALn+HT+h8X88j/ADFpJJG3h0/ofF/PI/zFpJJhuJfzdb+rU/uZfrX6mH4I/BAAEcdQAAAOgd/f9EZv7EP+dWd/Ogd/f9EZv7EP+dWd+H/zVL+pD+5HPcfVT/DL4MpMADdDPwAAAAAAAAAAfZwbgt2TbCjHqsvuseoVVQdlk/T0ivRLa5pPUYrq3FbZ8tqKzexa5jafGSh3N+HXiPGpKVMPIxE9TzbotUr5qmO4yyJ/StqCaalZB6TsT3H+ByuvkyeNOF1n4o4MHzY8Pl9os6efL51RSqT2m7ky2mJhwrhGuuMYQhFRhCEVCEIxWlGMYpKMUuiSSSRmONdM6dHOlY5Slsc37K/CvtPv9n8SLZY4FKplO40Xu73z9348mR33PdwHDuC16xq/MyJR5bcy5Rlk2pvbipKMVXXvWq61GPROXPLcnJQBjtxc1bmo6taTlJ7W3n+0ty2LYi70qUKUVCCSS3IAA5j1AAAAAAAAAAAAAAAAAAAAAAAAAAAAAAAAAAAAAAAAAAAAAAAAAAAAAAAAAAAAAAAAAAAAAAAAAAAAAAAAAAAAAAAAAAAAAAAAAAAAAAAAAAAAAAAAAAAAAAAAOk96Xc5gcYp8rNp5nFPyr4PkyMaT/SrsXX103CSlXLS5oSXQoT33eFriHBue5J5eAttZVa+OiPT+dVLrXr+1hz1NLbdTkoGlh4lHfR9U/b5lpwfpFdYY+rF9annrBvTv6r2xfpxiyHvsLo3azek/eXzW9evBoxtTBfPvx8E+Nmc+Twtww8p7lLH1rCyZPbelFbxrJP8ASgpVv3rTbmqR9rOyGVgXyxsyizHvj6wsWuZfrQmm4Wwe+k65Sg/Te9o3PCsbtcThnRl2stYPSS8N671muOT0M/vLCtayyqLTdJbH/h9z/wCTiAAT5HgAAAAAFz/Dp/Q+L+eR/mLSSSNvDp/Q+L+eR/mLSSTDcS/m639Wp/cy/Wv1MPwR+CAAI46gAAAdA7+/6Izf2If86s7+dA7+/wCiM39iH/OrO/D/AOapf1If3I57j6qf4ZfBlJgAboZ+AAAAAAAcp2Z7LZObdHHxKLMi+f4a6o7el6yk3qFcF0TsslCEdrcltF2O4/wR4+LyZPFnDLyFqUcVfFhY71/Wcy3kzi9vclGpdPu5OKmQOK41a4bDrV5dprSC1k/Dcu95Lm9CQtLGtdSyprTfJ7F4733LXw1K6dyXhg4hxlwtS+y4Daby7Yvd0d9Vi19Ha9L8cnGpb3zTacHffup7leH8Gp8vDq1OS1bkWank5D9fjs0tR31VcFCuPtFHea60kkkkkkkktJJdEkl6JfI/RhuMdI7rE24yfVpboJ6d3We2T9OEUaBY4XStNVrP3n8luXrxbAAKoTAAAAAAAAAAAAAAAAAAAAAAAAAAAAAAAAAAAAAAAAAAAAAAAAAAAAAAAAAAAAAAAAAAAAAAAAAAAAAAAAAAAAAAAAAAAAAAAAAAAAAAAAAAAAAAAAAAAAAAAAAAAAAAAAAAOqd4ndfg8VodGdRG6PVwn+G6iTWuem2Op1y/Zen6NSW0drB60qs6U1Upyaknmmnk1ya1PicIzi4ySae1NZozm77/AAiZ3Cue/G5s7BXXnhBvKxo9f5emKfNCPTd1XT3lCpLZAkZJra6p+jXozZQrp35eDfD4jz5OC44Oc9yaS/ieVLe35tcU3XOXX72pJ7e5Qt0jW8F6aJ5UcQ5Kol/cl8V+XaymX2BNZztvyt/Bv4Pz2Iz3B2Ht13f5nDL3jZ1E6Lerjv4q74p656bF8FkPR7i9x2lKMG+U68avTqRqRU4NOLWaaeaa7mtGU+UXFuMlk1tT2oAA9D5Ln+HT+h8X88j/ADFpJJG3h0/ofF/PI/zFpJJhuJfzdb+rU/uZfrX6mH4I/BAAEcdQAAAOgd/f9EZv7EP+dWd/Ogd/f9EZv7EP+dWd+H/zVL+pD+5HPcfVT/DL4MpMADdDPwAc72K7C5fEb1jYVE8i56bjHSjVFvXmWzk1CuC/Wk1v0W3pPznONOLnNpRSzbbySXe3oj6jFyajFZt7EtrOBlLXqTp3IeEvP4tyX3c2DgvT86yD8/JjtP8Ai1UtfDKO9X2agtqUY3raLHdxvgxxOH8mTxBwzcyOpRhpvCxZf3K5JO+a/tLlpNJxrra27IpGU4100Uc6OH6vY6jWn+mL283p916Mt9jgTllO50Xup6+LWzkvPajqPdt3T4HCafIwaI1J9bLH8d+RL9a62XxzfyTfLBdIxikku3gGR1a0603UqScpN5tt5t+LLpCEYRUYJJLYkskAAeR9gAAAAAAAAAAAAAAAAAAAAAAAAAAAAAAAAAAAAAAAAAAAAAAAAAAAAAAAAAAAAAAAAAAAAAAAAAAAAAAAAAAAAAAAAAAAAAAAAAAAAAAAAAAAAAAAAAAAAAAAAAAAAAAAAAAAAAAAAAHX+2/YLD4lRLGzaIX1S66mvirl7TrmtSrsj7Tg4yXzKNd+HgyzOH8+Rw7zM/DW5OtRUs7FjrfxQil9pguvxUxViTjuuWpWGgoLFhOO3WGS/hPOGesH7L/2vvXjmtCLvcOo3a7ayluktv8Ayu5+GT1MbAaN9+HhIwOLc+RRy4We+rurh9zkv/rNKcVKT/toctq6bdijyOh/eP3W53Cb/IzqHU3/ACdsdzxslLrum7SU9e8Wo2RX4oR2t7nhHSC1xOOVN9WplrB7e/LdJd614pGf3uHVrR9pZx3SWzx4P9pstJ4dP6HxfzyP8xaSSRt4dP6HxfzyP8xaSSZniX83W/q1P7mWq1+ph+CPwQABHHUAAADoHf3/AERm/sQ/51Z386B39/0Rm/sQ/wCdWd+H/wA1S/qQ/uRz3H1U/wAMvgykx4bO0d3vdpm8Vv8As+DQ7prXmTfw0Y6fpK+3TjWn7LrOXXljPTRe7uP8IODwtwyMnlzs6PWNk46x8ZvX8hTJtc0fa6zms6vl8pNxNPxfH7XDI5VHnUy0gtvdnuiu9+CZUrLDq12+wso75PZ35cX3ebRXHuP8HGbxLkyM7nwMJ8skpR1mZcWt/d1y/kIvp95dFyfXVbWpl6ewnd5h8MojjYVEKKl1fL1nbL9e2x7nbN+8pyb9uiSR2MGGYvj11icv4ryhnpBeyufvPvfgktDQbLDqNouws5b5Pb/wu5eOb1AAK4SgAAAAAAAAAAAAAAAAAAAAAAAAAAAAAAAAAAAAAAAAAAAAAAAAAAAAAAAAAAAAAAAAAAAAAAAAAAAAAAAAAAAAAAAAAAAAAAAAAAAAAAAAAAAAAAAAAAAAAAAAAAAAAAAAAAAAAAAAAAAAAAAAAAAOJ7UdlMbNpnj5dNd9Ni1KuyPMvo0/WMl6xnFqUX1TTOWB9wnKElKLaaeaaeTT7mth+NKSyewhDG7no8LoVGL5k8WuVkoc8vMsqVlkrHCT0nKMHJxjNpvlUeaUpblL4yezqXaLsBC3c6tVz9df1c39Uvwv6r/gydpYm6km67zbeblxb2t8+JHTtFFZU9i0y/wRiD6+I8JspfLZBxfs3+F/lJdH+5nyEumms0cTWWjAB9XD+F2WvlrhKT+i6L85ei/e0G0lmwlnsPlPtt7pVxOiVGRzwxbeXzHGXJZbGM4z5YPTaUnFRc1pqLfK09Nd/wCzvd/CvU7tWT9VH+rh+5/if1fT6e524iKuJOD/AID1TzUuDWxrlxO2FqpL+Jse7/Jw/ZHsdi4FEMbDorx6IfhhWtbb6uUm9ynOT6ynNylJ9W2cyAQU5ynJym223m23m297berJCMVFZJZJaZAAHwfQAAAAAAAAAAAAAAAAAAAAAAAAAAAAAAAAAAAAAAAAAAAAAAAAAAAAAAAAAAAAAAAAAAAAAAAAAAAAAAAAAAAAAAAAAAAAAAAAAAAAAAAAAAAAAAAAAAAAAAAAAAAAAAAAAAAAAAAAAAAAAAAAAAAAAAAAAAAB67qIyTUkpJ+qaTT/ADT6HCZXYXFm9urX7E51r/hCUUc+D0hUlD2W1yeR8uKe1HAY3YTFi9qrf7U7Jr/hOTX/AKHN0Y8YrUYqKXoopJL9y6HsAnUnP2m3zeYUUtiAAPM+gAAAAAAAAAAAAAAAAAAAAAAAAAAAAAAAAAAAAAAAAAAAAAAAAAAAAAAAAAAAAAAAAAAAAAAAAAAAAAAAAAAAAAAAAAAAAAAAAAAAAAAAAAAAAAAAAAAAAAAAAAAAAAAAAAAAAAAAAAAAAAAAAAAAAAAAAAAAAAAAAAAAAAAAAAAAAAAAAAAAAAAAAAAAAAAAAAAAAAAAAAAAAAAAAAAAAAAAAAAAAAAAAAAAAAAAAAAAAAAAAAAAAAAAAAAAAAAAAAAAAAAAAAAAAAAAAAAAAAAAAAAAAAAAAAAAAAAAAAAAAAAAAAAAAAAAAAAAAAAAAAAAAAAAAAAAAAAAAAAAAAAAAAAAAAAAAAAAAAAAAAAAAAAAAAAAAAAAAAAAAAAAAAAAAAAAAAAAAAAAAAAAAAAAAAAAAAAAAAAAAAAAAAAAAAAAAAAAAAAAAAAAAAAAAAAAAAAAAAAAAAAAAAAAAAAAAAAAAAAAAAAAAAAAAAAAAAAAAAAAAAAAAAAAAAARB4tOI2U8AzrarJ1WQlhyhZXOVdlclnY2nGcWpRf5Ml8hjxif6OcR/wC6f53GJfB0nf26f/76X/2ROG/eVtV/pz/tZCvcf45HHkxeNJyXSMeIVxW17L7VTCK6em7qV+1WvimXG4Txaq+uF1FkLqrIqddtco2V2RfpKMotxkn80zHc7/3S9+XEOC2c2JbumUua3Et3LGv9Nvl/FXY16W1OMui5lYlyvWca6G0rjOrZZQntcPsPl7j/AE9y1ZTrHHJ0soV85R4/aX+5eve9hqoCJO5XxLcP41FV1yePmKO54dzSs6esqZ9I3w99w+OKa54V7SJbMaurWta1HSrxcZLc168Gnua0e5l5o1oVoqdNpriv3o+KAAOQ9gAAAAAAAAAAAAAAAAAAAAAAAAAAAAAAAAAAAAAAAAAAAAAAAAAAAAAAAAAAAAAAAAAAAAAAAAAAAAAAAAAAAAAAAAAAAAAAAAAAAAAAAAAAAAAAAAAAAAAAAAAAAAAAAAAAAAAAAAAAAAAcfx7j9GLVO/JtroprXNO22ca64L6yk0ur6JerbSW20RT33eKTh/BlKpP7Xna6YlU4/dNrcXk2dVRF9OnLO1ppxrkttUK70++biHGLfMzLm4RbdWNXuGLjr25K9vmnr1tsc7HtrmS1FXbBei1ziGVSp2KW3rNayX3V/wBz04Z7CAvsYpW2cI9qfBbFzfy28tpY/vM8fMo5EIcJx67Meuadt2UpxeZFesKa4uMqYv2utUpb/qdL4p27m/Ehw7jMVGqfkZaW54dzSuWtblU+kb61tfHXtra5owfQzCP3RfKMozhKUJxfNGcJOE4SXpKMotSjJe0otNGk3XQ2wq0FTpJwmlpPPNv8SekvDLLdktCr0ccuYVHObUk9sdiXLh69+upsgCh3c344srF5aOKxlm0LosqHKsypdEuePwwyIr3luFulvdzei53YfvDwuJUq/ByK8ivopcj+OqTW+S2t6nVNfqzjF/QyDFMCu8Nl/Gj2M9Jx1i/Hc+55MutpiFG6XYevuvR/881mjsYAK+SQAAAAAAI08SHYzI4hwXNxMSCsyLVQ64OUa1Pysmm2SUpainyQlrbSb0treySwdNtXlb1oVoZdaE4zWezOLTWfdpqeVamqsJU5bJRcX4rIyB7Tdk8rCs8nMxrsW3bSjdXKvn16+XJrktj/AHq5Ti/Zs4o2C492cx8qt05NFWRVL1rurjbB/wDZmmt/X1RXTvB8B3DcjmngW24Fj2+RuWVitv8AuWT82C+SrujCK6KHols2H9OLarlG7g4P3l2o/wC9cspcyi3OAVYa0WpLg9H/ALX5rkUKqscZRlFuMoSU4Si3Gdc4vcZwlFqUZRaTUotNNJpotZ3IeOC7H5MbjClkUrpHOhFyyaUvTz64pvIj6/eVpWrpuFzbkow7f+FDjfD+aUsX7XStvzsFyyEor0cqeWGRFtdXqqcVp/E+jcQN9XH9KLcZJ9JQknpxkvWMk+jT00y217ewxqjk3GpHdKMlnFvg1rF9z270yGp1bixqZrOL4NaPwejXfzyaNgez3aPHy6YZGNdXfTYtwtqkpwl+9e69Gnpp9Gk0ckZP92He9n8Hu83CucIyadtE/jxslLp95U3rm1pK2DhYtJc2txd9O5DxVYHGOWmesPPaSeLbNON8tbbxbdRVy6P4GoWpLbhrUnjWNdFbnD86tLt0tuaWsV95f9y045bC8WGMUrnKE+zPhno+T+W3hntJsABSCwAAAAAAAAAAAAAAAAAAAAAAAAAAAAAAAAAAAAAAAAAAAAAAAAAAAAAAAAAAAAAAAAAAAAAAAAAAAAAAAAAAAAAAAAAAAAAAAAAAAAAAAAAAAAAAAAAAAAAAAAAAAAAAAAAAAAAAAAj7vx7N8UysCyrhOXHEyX1bcdSvhp7phd1ePKforVCTXonDfPGQQdFvWdCpGrFJuLTylFSTy4p6M86lNVIODz1WWjyfg1sMfu0nZ3IxL7KMuqyjIhLdldq+83J753LbVim9tWRlKM+rUpepxpq33qdzWBxinys2lSlFPyr4ahk4zfvVbptJtLmrlzVz0uaMtIoR31+FziHBnK1J5mCuqyqYPdK30+01JydOl627dT/Wg2oG+4L0ptsQyp1MoVdnVb0l+Fv+167l1tWZxfYRVtc5R7UOO9c181py2ENgJguxBA5Ps32mycO6ORiX2Y18eitqlyy168sl1jOG+rhZGUH7xZxgPmUVJOMkmno01mmu9PRn6m081tNQ/DX2/wAnifB8bMy3CV85XwnKEPLjPyr7KoycU2lJxinLl1FvbSj6KUCDfBZ/o9if4uZ/m7icj+XcXpxp31eEElFVqiSWxJTkklyNasZOdvTlJ5twi2+PZQABEHaAAAAAAAAADpvbvud4ZxNfx3CoulppWuPJkQ2tfDdDltj7dFPXRdHo7kD2pVqlGSnSk4yW9Np+a1PicIzXVmk1wazXqVD7cfwfdEuaXDc6yl72qcuKvqS/VjbWoWwX96avl+e+lfO23hf45gNyswbL64akr8NrKj0fRqFesmLi9Pbpjp9U3rZp+C62XTLELfSo1Uj95a/mjk8+99YgK+BW1TWGcX3PTyeencsig/cn41MvBccTiqsy8eGoedr+P4nX+sUuX7RCK9pauSX4rW1FXe7I9ssXPohk4d8MimfpOD3p+8ZRepQnH3hNRlH3SPg7Yd13DuIL+O4WNktfhnbTCVsP2LdeZD/syRGXDvClTgXvJ4LnZfDLn+Kpy+3YN/yjfj2yjZbFddfxiMob+CUDmvrnC8RzqRi6FXa9OtTk+/q9qL71DLjFvU9beleW3ZbVSHPKa89H4y5PcTsD4uDu7y19oVXmrpJ0uXlz/vRjNc0N+vI5T5fTnn6v7SnNZPInE8wAD8P0AAAAAAAAAAAAAAAAAAAAAAAAAAAAAAAAAAAAAAAAAAAAAAAAAAAAAAAAAAAAAAAAAAAAAAAAAAAAAAAAAAAAAAAAAAAAAAAAAAAAAAAAAAAAAAAAAAAAAAAAAAAArp33+MrC4a542Co5+bF8stSaxMZ+6stj/KTX9lTvTTUp1tafdu5LxF4HG69VPyMuK3bh2tebHXrOqXSN1XynDqunPGt9CaqYNe07dXU6UlTe/LYtza9pRe5tZPjqs+CN/QnV+hjNdbh8k9ja3rb6kqgAhTvAAAB+ZwTTTW0+jT6pp+zP0ACtHfT4J8PN8zI4a44GXLmk6tP7DkTfX4oRTeM2/WdEXHrKTqsb2Uo7f922dwu7yM7HnRNtqEn8VOQl+lTavgsWuuk+eK/FGD2lrccb2h7N4+XTOjKpryKZrU6rYKyEv3ST6r2a6r2aL9hHS+6s8qdf+JT2avtJd0t6XB8k0it3uCUq2cqXZl3Lsvmt2fFc2mY/Aub3teAtPnu4PdyvrL7Fky3D9mjI05x99Rv8zbf8pBJJVL7WdjMvAtdGbjW41q/QtjpT+tc05V2x/vVTnH6mxYdjNpiMc7eab3xekl/p7uKzXeUm6sq1s8qsdOO1Px+TyfcaEeCz/R7E/wAXM/zdxORBvgs/0exP8XM/zdxOR/PWN/8AyFx/Xq/3yNKw/wDlaX9OH9qAAIQkAAAAAdG77O8SfCeGZPEIVRvljuj7qU3XGatyKqZfGozcWo2OSfK+qXQ96FGdepGlTWcpSUUs8tW0lq9FqzzqVI04OctiTb5JZvZqd5BW/sZ47eD36jlxyMCe0t2VvIpbfysx1ZNL5uyqtL8upO3Zntph5sFZiZVGTB/pU2wtS/Plba/J6O28wu7s/wCYpSiuLWnhJdl+Zz0LyjX+rmn3Z6+W1eRzQAIs7AAAAAAAAAAAAAAAAAAAAAAAAAAAAAAAAAAAAAAAAAAAAAAAAAAAAAAAAAAAAAAAAAAAAAAAAAAAAAAAAAAAAAAAAAAAAAAAAAAAAAAAAAAAAAAAAAAAAAAAAAAAAAAAAAAAcf2gpvlRbHGnXXkOuSpstg7aq7NfDKcIzhKUU/VKS/f6P6is2lnlrte7y1PxvJZnCd4vejg8Ko8/OvjTF9IQ/FdfL9SmqO52S93yrUV1k4pNqh/fd4us/ivPRj82Bgva8uub+05Udv8Al7o65YyWt0VfD+KMrL0yP++fhnFqs+yPGZWzzGt+ZZLnrurT0pYzjGFfkb9I1QrjFt7hCTkjo5veA9F7S0jG4m1Vm0pKW2C74rf3Seu9KOpnOIYtWrN00nCOxr7T/Fw5Lxb0PEY66Lol7eyPfg506pwtqnOq2uSlXZXKVdlUl6ShOLUovq1tNdG17npBfXroyvbC5PcX44fwYvG+npGHEIR6S66X2qqC+F+m761yerlCtJydweHcRrurhbVOFtdkVKFlclOuyL9JRlFuMk/ZptGOpIfdJ388R4LPeLbzY7bdmHbuWNbvq2l+KmbfXzKnFt/iVi6GZ410MpXGdayyhPa4fYfL3H3ez+HaWqwxydLKFfOUfe+0ufvfHmaoAhzua8UnDeMctSl9kzX0+yXyipWPW28exPlvj69Fy2JLcq49NzGY7dWla0qOlXg4yW5r1W5rg1p3l3o16daPXptNd370fcAAcZ7gAAA4jtP2Rxc2p0ZePTk0y9a7q42R37NKSfLJPqpR1JPTTRy4PuE5QkpRbTWqaeTXij5lFSWTWaOu9guwWNwzGjiYkZQohOycISnKxwdtkrJJSm3Jx5pPSbbS6b6HYgD9qVJVJOc23JtttvNtvVtve3vEYqCUYrJJZJcEAAeZ9AAAAhjxif6OcR/7p/ncYmchjxif6OcR/wC6f53GJjBv/kLf+vS/+yJwX/8ALVf6c/7WZpnsw8mVc1ZXOdVkfw2VylXbHfryzg4zX7mj1g/qLuMmJe7G+LHj2ElGOb9qgtahnR+1dF7O3mhkPfzd7/8AgnHsf/CEQbUeIcOlBdF5uJarV9W6bY1OKX926x+2umymAK7d9HsOus3UoxT4x7D59nJPxTJKjiVzR9mby4PtL9WeXhkad9kvFRwHM0ocRppm3y+Xl7wp83yXnqEJ/JOuUk30Tb6Ep4+TGaUoSjKL9JRalF/k1tMxxOY7Nds8zCkpYmXk4zXoqLrKoP8AarjJVzX0nGS+hTLvoHSettWa7ppS9Y9XLyZOUekU19bBPvi8vR55+a/xr2DObsh42OO42ldZRnQXtkUxhZ+Ssx/J/wCM4Tf1Jl7K/wAIPiS5Vm8PyKJN6lPGsryqo/3mrHj2a92owm17cxULrofiVD2YKa4wkvhLqy9Cbo45a1NrcXwkvnHOPqW0BGXZPxK8DzXGNPEceM5/hqvk8W2T+Sheq3J/SO2STTfGSUotSi+qcWmmvo10ZUq9rWt31a0JRfCUWviTVOtCqs6ck13NP4HsABzHqAAAAAAAAAAAAAAAAAAAAAAAAAAAAAAAAAAAAAAAAAAAAAAAAAAAAAAAAAAAAAAAAAAAAAAAAAAAAAAAAAAAAAAAAAAAAAAAAAAAAAAAAAAAAAAAAAAAAAAAAdU7yO7DC4tjvGzalZD8Vc18N2PPWlZTZpuE0unvGS3GSlFuLz278/DPncFk7NSysBt8mXCPWpb+GOVBb8qeunmJeVN+jg2q1poerJxozjKE4xnCScZRklKM4tacZRe0010aa00WnBekNxhcso9qk3rBvTnF/Zfo96emURf4ZSu1m9J7pL58V6rc9pjiC6nfp4Hoz58rgvLVLrKfD5vlpn6fzWxvVL9fuZp1ttKM6UtOmvFeE20WTpvqspurep1WwlXZW/70ZJNJ+qfpJdU2mmbxhmL22JU+vQlrvi9JR5r5rNd+1LPLqzq2surUXJ7nyfy292w+UAE0cJ4a/wDh/k11T/NPqiwXdD4zOJcO5KcvfEcSPTVktZtMUkkq72/vEtfhvUpNv+Vglor8DgvLG3vaf0dxBSj37V3prWL700e9GvUoS69KTT7t/NbH4mqXdd38cM4vH+J5CdqW541q8rKq+e65fjiv7Sp2Vt+knp6kExvoulGUZwlKE4PmhOEnCdcv1oTi1KMl84tNFhe67xtcTwVCrMiuJY8dLmsl5ebCO+rV+pK5peiuhzza63LbZlGKdB6kM52Musvck0peEtIvx6vNlxtOkEX2bhZfeWq8VtXhn4GhYIt7tPErwjivLCjKjVkS/wBVydUZDettQjJ8t2vnTKxflp6lIzS4ta1tP6OtCUZcGmvjtXeWqlWhVj1qck1xTzAAOU9gAAAAAAAAAQx4xP8ARziP/dP87jEznF9puzGPm0WY2VTC+i3SsqsXNCfLJTjtfOM4xkmuqkk16HdYXEbe5pV5JtQqQm0tuUZKTy8jmuaTq0Z01tlCUfNNGQAL8dtfAVwu/mlhX5GDN7aW/teOm/nXbJW6311HIj8lpLRBfbDwOcaxtvH+z58EunlWeRe/9zfqC/dfJ/kf0DZ9KcNudFV6r4TXV9fY/UZxXwm6pbYZrjHX09r0K9g5ftL2OzMJuOZiZOK09byKLKYN+nw2Tiq5pv0cJST9mziEy0wnGa60WmuKea81oRDTTye0AA+z8AAAPDRzHZfthl4L5sPJvxXvbVFs6oSfzlCLUJv6yiziAfE4xnFxkk09qazXk9D9TafWW3jvJ37L+Nfj2Moxstx8yKfX7VjpWNfJTxpY+nr0lKM3vq+b3mbsl/CDYs+WOdgX0N+tmNOGTVH6uM/Js1+zGx/T3KRArV10Zw259qik+MOx6Ryj5pkpRxS6pbJt90u18dfU1D7HeJrgWc1GniFMZv8Aq8hTw7G/7sciNfP+cHJe2yTablJJxakn1TTTTX0a6MxuaOb7Mdts3CaeHl5OLp7UaL7Kq23681UZKqe/VqcJJ+6ZULroFTettWa7pxT/AFR6uX5WTVHpFNaVYJ98Xl6PP4mvIM8OyPjj43j6V/2bOglp+dX5F0vr5tHLBfXdEv3E2djfH5w21JZ2NkYUveUP47QvylXGF7+b/i/T6+pTbvojiVvqqamuMHn+l5T/AEk5Rxq1qaOXVf3ll66x9S0YOodju97hfEOmHn4t89JuqFsfPin6c1MmrY/L4oLrtezO3lSq0alKXUqRcXwaafk9SahOM11oNNcU8/gAAeR9gAAAAAAAAAAAAAAAAAAAAAAAAAAAAAAAAAAAAAAAAAAAAAAAAAAAAAAAAAAAAAAAAAAAAAAAAAAAAAAAAAAAAAAAAAAAAAAAAHzcR4jXTCVts4V1wi5TsskoQhFespSk0kl82yn3fj45Px43BNP1jPiFsG4r1T+yVT1zNPqrrouHT4a7FJTUzhuE3OI1OpbxzW+T0jHm/gtW9yOG7vaVrHrVHyS2vkvns7ywve938cP4LXzZVnNdKLdWJVyyyb/bai5JQhv1sscYL023qLj/ALh/F9jcWueLk1xwcuU39ng7OenKg23GuFjUH9ojFfFXKMVP1hzfFCGfXEuJWXWTuusnbdbLnstsk52Wy9NylLbb0klt9EklpJI+b/4aafo011TT9mn1TXozW6PQi0jbOnUk3Vf/APJs6r7o55Ncc9XucdMqZPH67qqcUlBfZ4rve3PhlouD37JgpH4efGjKlQw+NTc6lqNXEGnKypb6Ry0tucF6LIiuaKS8xS+K1XWxMuFkYzrlGcJpSjODUoTi1tSjJbTTXVNPTMlxTCLjDav0ddaP2ZL2ZLufxW1cNmdys72ldQ61N671vXP5PY/M9wAIU7wAAAdB71+5Dh3GauTMp+8imqsmp+Xk0fs2L8Ud9XVYp1t9XFvTXfge9CvUoTVSlJxktjTyfp6nnUpxqRcJpNPc0Zr98vhP4lwnnuhH7bgx3L7RTF+bRBf/AHNHWUNL1srdlek5SdXSJCcZJ9V1T9GvRmyhA/fD4P8AhvE3O6lfYMyW5O6iEfJum1rd+P0jPb03Ot1WPXWb6p6xhHTdaU79d30kV/dFfGP5N5Tb3AGs5Wz/ANLfwfyf5jOQEj96fh84pwhyeTjueOn0zKN240l85tfHR8n58K1vonLo3HBqlC4pXEFUoyUovenmvTfxW1FRqU505dWaafBrIAA6DzPDX/w/ya6p/mn1Ja7uPFHxnhvLGGVLJx49Ps2ZvIhrf6FrayK9eiUbfLS/Qeo6iYHLc2tG5h9HXhGUeEkn5Z7H3rU9aVWdKXWpyafc8v8Ayu7YX27vfHlw7I5a8+m7Aset2L+M4m/8SCV0fnudCiv1/TdhuzPa7Fza1diZFOTU/SdFkLY+603BvT2mmnppprXRmQZ9PCeKW49iuossouj6W0zlVal0eueDjLleluO9P3TM/vug9rVzlbTdN8H24+rUlzzfIsdvj9aGlVKS4+y/TR+S5mxQIi8KfavJzeB4uRl3TvvlPJjK2fLzyjXkWwgpOMYpuMIpba29bbb2yXTGbu2lbV50JNNwnKDa2NxbTyz13F6o1VWpxqLZKKlr3rMAA5D2AAAAAAAAAPVk40ZxcZxjOLWnGSUoyXyae00RX2w8K3Ac1uVmBXVY9vzMWU8OTb95RolCuf08yE9e2iWQddvd17aXWoVJRfGMmvgeNWhTqrKpFNd6T+JTztZ/B7VvmlgcRsg/VV5dUbY/s+bT5UkvZN1za9+YhftT4POP4q39lry4r1lhXK7S+fJbGi57+Ua5P6GlYLda9MsRoaTcZr70dfOHVfnmQlbArWp7KceT+Us18DHfjnB7sWfl5NVuNZ11C+udE5a9XGNii5L6x2vqfIbFZ/Dq7YuFtcLIP1hZGM4v84yTX/oRR2q8JfAMtPeBXjyfXnw3LEafz5K2qm/f4q5J+6Zb7Xp5QlpcUZR74yUl5PqtebIWr0dqL6uafc016rPP0MzAXO7UfwecNbweJ2RfX4MymFvN8l5mP5HL+15M/wAiHO1ng54/iv4MSGZDr95iXVy0vbmrudNu38oQsX19i32vSPDbnSFaKfCXY/vyT8GyFq4ZdUtZU3l3dr+3NkKA+/jnZ7IxZcuTj340k9ayKbKG37a8yMeZP2a2n7bPgLFGSks4vNcURrWTyYAB9H4AAAI9Gmuji9xa6OL+afqn9USP2N8RnG8DlVHELpVxf8jk6y6pL9X79TshD6VWVtL0aI4Bz17elXj1K0IyXCUVJep6U6k6bzhJp8U2vgXE7GfwhElqPEeHuWtfe4M480vn/F8iUIr81kvfyRZHuz79OF8X2sLJjO2MeadFilTkQj6bdU0pOKfTnhzR+vVGVR78DOnVZC2qc67a5KddlcnCyuS9JQlFpxfquj9G16NlIv8AoZY103Qzpz3ZNuOffGWb8msuG4nrbHLim/4mUo96yfg180/mbGApd3H+OVx5MbjfVfDGHEKoPa9v43TBPb31d1EUuvWpac3cbhfFar64XU2QtqsipQsrkpwsi/RxlFtNfkzHMTwi5w2fUuI6bpLWMuT+Tya3ou9pe0rqPWpvmntXNfPZ3n1gAhjvAAAAAAAAAAAAAAAAAAAAAAAAAAAAAAAAAAAAAAAAAAAAAAAAAAAAAAAAAAAAAAAAAAAAAAAAAAAAAAAAAAAAAAAAAAKL+OLgfGo3K6+6V3B5SSohTGVdGLY2uWOZWpSU7XLXl5FjcW/hiqZPlnVQ2K4lw2u6udVsI2VWRcLK5xU4WQktSjKL2mmujTKG+I/wh28Pc83hkJ3YPWVuOm538PWttx3uV2OtPrt217W1OPNOG0dFekdCVONjXUYSWkWkoxlz3Kb4/affpKiYvhdRSdxTzknq1ta+bivTlsrODxGW+q6p+n1PJqZUgSz3H+JHO4JNQg/tOFKW7MOybUY79ZY0/i8ie/iaUZVzae4py8yMTA5Lq1pXVN0a8VKL2p/vNNbmtVuZ60qs6UlOm8mt6/evLYatd1ffPw/jFPm4dylOKTux56jk4re0lbVttJtSUbI81c9PllLR3kx74Dx+/FuhkY11mPfW9wtqk4Tj1T18pRelzVzUoTXSUZLaLldyvjnrs5MfjMVTZ6LOrjrHs175Fa60SfvOClV0bapWkYxjXQ2tb51bPOcNvV+3H/euWv3Xqy82OOQqZQr5Rlx+y/8Ab8O/cW6B8+DnwthGyqcLK5pShOElOE4v0lGUW1JP5p6PoM3aaeTLUAAfgAAAPzZWmmmk01ppraafqmvdMr93p+CzhWfzWYi/6NyXt81EE8WUur+PF5oQW29t0ypk/dssGDvs7+4sp/SW83F9z0fNPsyXc0zmr21KvHq1Ypr4cntXgZg953hk4vwtuVmNLJx03rJw4zyK0vVStgo+bStespw8uL6eY9x5ophNNbTTXzXVM2UIl7zPC5wfijlZbj+RkST/AIziPyLdv9KcUnTc99d3VWNddNbe9Pw7p0tIXtP/AFw+cX6tPlEqV10fftW8v9Mvk16ZrxMxgWT7xfAtxTGcp4M6uIUpNqG1j5i+nJN+TZ068yug36Kv51547wS7FtdGTTZj3R6uq6EqrNenMoySbjtNKUdxenpvRpVliVrex61vUjLfknqucX2l4oq1e2q27yqxa3dz5PY/M+IAEmcxpD4LP9HsT/FzP83cTkQb4LP9HsT/ABcz/N3E5H8v43/8hcf16v8AfI1jD/5Wl/Th/agACEJAAAAAHRO/DvEs4TwvJz6qoXTodGqpycITVuRVTJOUVJxajY2nyvql0Z70KM69SNKmu1KUYrXLVtJavRas86lSNODnLYk5Pklm9mp3sFV+y38IFw+zljmYWXit/inV5eXRB++2pVXtfs48n9ETR2S7/eDZzUcbiONKxraqnYqL/wDyruSx6+ai0Sl1gl/a61qM0uKXWX5o5x9Tjo4hb1vYms+GeT8nkyQAeEzyQhIAAAAAAAAAHz53Dq7YuFtcLINacLIxnGSfRpxkmmn+RE/anwl9n8pdeH1Y0vVSwm8Np/PkpcapflOuS+hMAOy3vLi2edCpKP4ZNfB6nhVoUqulSKfNJ/Epz2t/g9YtuWBxKUF1+6y6Fb+SV1MqnFe3xU2PrvfTRCna/wAI/HsNOTw1lQjtuWFP7S9L5VONeRJ/SNMn+etmmILda9M8Ro5Ko4zX3o5Pzh1X4vMha2BW09Ypxfc9PKWfpkY58S4fZTPy76raLPXy7650W69N8lkYz9foeg2B452bx8qDryaKb4P1hdXC2Py9Jpr95CfbHwScCyeaVNV2DZLrzYt0vLT+lF3m0Qj/AHa64fTTey52nTu2npcU5QfFNTXj7Ml4JkFW6PVo60pKXc+y/mn5ozqBaDtr4BuJVNywcnGy6/Xkt5sTIXyUeltM39XZT8tP1IE7ad2nEOHfz/DvxVvXPZBOlveklfW50Nt+iVjb9i72eLWd5l9BVjJ8M8pflllL0IGvZ1qH1kGlxy0812fX5nWgeEzyS5xgkDuk78+IcFs5sS3mpk924lrlLFu67k1Hf3Vr6/e16lvXMrElEj8HPXoU7iDpVYqUXtTWa/fB7VtR6U6kqclODaa2NGnHcr4luH8ajGEJLGzeXc8K2S8zovidE9RWRWv1oJSS1zQr2kS2Y30XyjKMoSlCcWpRnCThOEl6SjKLUoyXtKLTRazuP8cF1HJjcZU8infLHOhFPIpXt9orioq6EV62VrztJbje25GP410LnTzrWHajtdNvtL8L+0u59r8TLrY47GWULnR+9ufNbuezkXkBx3Z/tFRl0wyMa6u+mxc0LapKcJr6Ne69Gn1T6NJnImXSi4txksmtGnuLcmms1sAAPk/QAAAAAAAAAAAAAAAAAAAAAAAAAAAAAAAAAAAAAAAAAAAAAAAAAAAAAAAAAAAAAAAAAAAAAAAAAAADiO1Pa3GwaZ5GXfXj0Q1zWWyUI7fRRW+spyfSMIpyk2kk29FWM/8AhAKVxCEa8ST4WtxtulzLMnvXLdVT6RhDT3TNuyyMt/dSh5c5mwwe7v1KVvTclFNt7FszyTejk9yWvxOG5vqFs0qskm92/npsS3vYW+Bx/AePU5VNeRj2wuotip121yUoTi/Rpr/g16p7T000cgREouLcZLJrRrgdqaazQAB8n6AAAVV8Q3gzry3Zm8IjCnKe5W4fw142W225SqfRUXyb29vyZtdVW5SsdIeLcJtx7Z031Tpuqk4WVWRcLK5L2cX/AMU1tSWmm003sQRn3y+H/h/G69ZEPLyYRapzKklfV66jJ+l1W3t1Wbj6uPJL4lpWA9L6lrlQvM5U9iltlHn70V+Zbm9IlVxDBI1c6lDSW9bn/h+nLVmXAJF74e4XiHBbNZNfmY8nqrMqjJ41vXSjN9XRa9/yVj6vfJK1RciOjabe4pXFNVaMlKL2NPT9retq2NFFqU5U5OE001tTAAOg8zvfdZ33cS4NPeFfqpy5rMW1OzEub9XKtSi4Tf8AaVTrm9Lbklouv3R+MzhnEOSnKf8A0fly0uS6W8a2XT+SydKC23pQuVU36JT1sztDRWMV6O2eJZyqR6tT346Px3S8ddyaJWzxKva6Recfdezw4eHimbJRkn1XVP0a9GeTLjur8RfFeEcsMe924y1/FMnmux1Fa6VLmU6Oi6eVKME3twn1Tt73Y+NzhWaowzf/AOWXvo/Pnz4cn845XLCMF/jxp+S5vUyHE+iV9Z5ypr6SHGK18Ye15dZLey6WuNW9bSb6suDenhLZ55PuLFA9WLlxnGM4SjOEknGUGpRkn6OMltNP5pntKU1loT4AB+AAAAHE9peyeLmVunLx6cmp+td1cLYfmlJPT+q0zlgfUZyg1KLaa1TTya8j5lFSWTWhWPt94DOG5DlPBvuwLGulf86xN/Py7Gro/LUMiMV0+H13XPt54PuOYTbhjrOpSb83DkpySS38WPNwv5n10qoXLp67aT0oBc7HpdiNrkpSVSPCazf5llPzbXcQdxgttV1ScXxj/h5x8kuZCfg4wp18AxYWV2VTjbmKVdsJVWQf2q56lCajKL+jSJsAKve3P/VXFSu1l15ynlnnl1m3lnvyzJe3pfQ0o088+rFRz45JIAA4j3AAABDHjE/0c4j/AN0/zuMTOQx4xP8ARziP/dP87jExg3/yFv8A16X/ANkTgv8A+Wq/05/2szTPzOCa00mvk+qP0D+ozJjsXZLvH4hgaWFm5ONFekKrZKldd/yMuanq/XcHv32TF2W8c3HKOVX/AGTNgvxebS6b5/lbRKFcX9XjzX0K9gjLrDLS6+vpQk+Lis/zLtep1UrqtR+rnJdyby8tnoXr7K/wgPD7NRzMPKxXrrOrkyqV/wCF13fuVMvzJk7G+IXgufr7NxDHc3/VWuWLfv0/ksiNVj69E1Fp+zZlgeJwT6NJr5PqioXXQiwq60nOD7n1l5S7X6kTVLHrmHt9WS5ZPzWnobJxkn1XVfQ8mR3ZfvG4hguLw87LxlH8MK77FQvzobdEl9JVyRNPZPx18Zo0siGLnQS/Tg8a5/72ndf/ABx29+5ULroLd09aE4TXB9h+ucf1E1R6Q0ZfWRceXaXpk/Q0IBWHsf4+uGWpLNx8nCn05nFfbKE366lVGNzS+bx4v6E4dj+93hef0w8/FyJ6TdcLoefFP05qW1bH5fFBdfyKbd4Pe2mf09GSXHLOP5o5x9Sco31vW+rmm+GeT8nr6HbgAQ53AAAAAAA/NlaaaaTTTTTW00/VNe6fyP0ACIe3vhS4HxDmlPEWNbLbd+E1jWcz/ScYxdNkv8Wqe+m96RXXt74A8yrmnw7LryopbVOQlj5H1Stjumcn7c0aFv1a9VegFmsekmIWeShVbj7s+0uWuq8GiJuMLtq+soZPjHR+mj8UzI3tj3eZ/D5cmdh34r9E7IfdSe9ahdBzpm9+0LJeq+aOvGxXEOHV2wlXbXC2uacZ12RjZCcWtNSjJOMk10aaaZAneL4JeD5ilLFjLhtz9JYy5sbftzYsmq0t+qplS3+t7miWHTqhUyjdwcH70e1Hy9peHWKzc9H6kdaMusuD0fn7L/SZ4AmnvL8I3GeGqVkaft+PHX3uFGdliXzni6d0dP18vzoxXVySUuWFmurT6OLcWn0cZJ6aa9U0+jT6pmi2t5Qu4fSW84yjxTzy5ran3PJlZq0alGXVqRafev2nzWh3Luw73uIcHtduDdyKTTtosTsxcnS0vNqUottLSVkJV2JJJT1tO+3ch4qcDjHLTJ/ZM7XXFtluNzS6vHt0o2r1+D4bUltw18TzXCfVNdGmmmuji09pp+qaaTTXVMg8Y6PWuJrrTXVqbppa93WX2lz14SRIWWJVbR5R1j7r2eHuv04pmyYKDdx3jVysLkxuKc+ZirUY5O3LOxor3nvf2qKWvxNXLTfNc2ol3+yPbLFz6I5OHfXkUz9J1y5kmvWMl+KE4vpKE0pRfRpGGYtgd1hk8q0c4N6TWsX/AIfc8nwzWpoFniFG7XYfa3xe1f5Xevjoc0ACvkkAAAAAAAAAAAAAAAAAAAAAAAAAAAAAAAAAAAAAAAAAAAAAAAAAAAAAAAAAAAAAAAAAAAAACCO/Hxa4PCefHo1m562nTXJKnGlrf8ZtW+R+n3UFO17W1BPnXb/EB2R4hm8Nup4ZlTxsn8WoONby4JNTx/Na56XYn8NkJQakkm+VyMuszhs6ZzpsrlVZVJwnVOLhOqcXpxlF9U1//H3NE6LYBbYjnWrzz6ry+iWj7nJ7eq92W33lsdYxfEqttlCnHLNe2/glxXf5Pauy943enn8Wu8/Ovla1vy6l8GPjJ7+GmpfDH105y5rZLXNOekdUANypUoUoKnTilFLJJLJLwWhQJScm5Sbbe1t5v1Ja7gvEVlcDt5VzX4Fkua/E2tpvSd2O5aULkktxbVdqWpcr5bIaNdhu3WLxLGry8O2NtNi6NdJQkvxV2RfxV2QfSUJJNP8AcZFnde6jvfzeDZH2jDmtS5VfRPboy4R/Rsiuqkk3yWx+ODf6ScoSpHSHoxTxFOvQyjW9J90uD4S8Hpk4z2G4tK17FTWn6x5d3FeK3qWrwI37mO/nB43Tz48vLyIJefiWNK+hv9Je1tTf4bYbi/R8klKEZIMIuLerbVHSrRcZLRpr97dqex7UaHSqwqxU4NNPev35gAHOeoAAB83EuG13VzqtrhbXZFxnXZFThOL9VKMk00/k0VB76vAsnz5HBZKL/FLAum+R9W39multwfyqubh7KytJRLjgmMNxa5w6fXt5ZcYvWMua+ejW5nDdWVK6j1ai5PeuT+WzuMeONcFuxrZ0ZFVlF9b1Oq2LhZB/VP1T10ktxkuqbXU+M1i7ye6Ph/FqvKzseNvKn5dq+DIx2/V1Wr4oezcesZa+KMl0KV97vgm4hg81vD3LiOMuvIlGOdTHXrKtcschb31oSm9pKn1ktownpdaXuUK38Opwb7L5Sei5PLgmyi3mDVrftQ7Ue5armvms+OSK4g/Vtbi3GScZRepRknGcGvWMotKUZL3TSaPyXor4AB+g7f2B73OJcLkng5ltEdpyp2rcaentqVFinWub0coRhZr0mmk1aHu8/hAIPlr4rhyg+ieTh/eV+nWU8eySsgvpVO9v2j7FLwQOIYHZX+temut7y7MvNbfHNdxIW1/Xtvq5PLg9V5PZ4ZczWnsP3pcP4lHmwcunI1+KMJrza/pOqWrIP9qKO1GN1FrjKNkHKFkHuFkG4WVy/WhOLUov6xaZNPYTxhccweWMr4ZtSa+7zYOyaivVQvrlXam16Sslck9fC0tPOL7oJUj2rSopL3Z6P8y7L8VEtFv0hi9K0Mu+Oq8nqvNmlAKxdiPHtwy7Uc6m/Bn03NReXjtv5Spi7l/2qEkvd9Sf+ynb3CzoeZh5VGTH502xm4/tRT5ov6SSZn95hN5ZfzFKUVxyzj+ZZxfmWSheUK/1U03wz18nr6HPAAiTsAAAAAAAAAAAABDHjFf/APTnEf8Aun+exiZz5OLcIqvrlTfVXdVNanVbCNldi3vUoSTjJbSfVeqO2xuFbXNKu1moVITy49WSll45HPcUnVpTpr7UZR800Y7g0k7W+DbgOUny4ssOb3qeFY6OXfyqkrMf8t0tL5EO9qf4PWa64PElJf2eZT8Tf+NQ4pf/AKf95u1r0yw2tpOUoP70X8YdZeeRntXBLqnsSlyl/uy+fyKegl3tR4TeP4re8B5EEm/NxLa8iLS+VfNDIb17eR+W+pFfE+GW0S5L6raJ71yX1Tos2vVclkYy/wDQtlveULlZ0KkZfhkn55PQh6lGpS0qRa5pr47T5gAdh4gAAAL1T909p+8X80/VP6oAAkTsd4huN4HKsfiOQ64vflZDjl1Nfq6yFZOEfpVOvXs0Tz2M/hBrY6jxHh8bFpbtwp8k2/f7i+XL83/OV8te5UIEDeYFYXetWjHPil1X5wyb8cyQoX9xQ9iby4N5rylml4GnfYXxR8E4hyxrzYU2y6KjL/itu/1V5mq5y/wrJ702trqStCaaTT2n1TXVNP0aMbWjtvYXvX4lwzX2HMvx4J78lSU8d9dvdFinV8W3tqCl13tPTVFvegcHm7Sq192azX5o6r8r5lgodIZLStDPvi8vR6eqNZwUi7A/wgGRDUOJ4ULltffYT8mzXzlRdOVc2vVuN1SftFa62T7vPEXwfibUcbMgrn/q96ljZG+n4YWqPmrqviqdkfr0es+v+j9/ZZurSbivtR7UfFr2fFIslvidtX0hNZ8Ho/Xb4ZklAArpKAAAAAAAjfvP8PfCuLpvKxkr9fDlUPyMmL1pNzj0tS9oXRthtL4eiJIB0W9zVt5qpRk4yW9Np+h5VKUKserUSa4NZmfXel4IOJYfNbgSXEcddVBarzoL33U9V2pevNVNTfoqenWul1MoylCUZQnCTjOE4uE65L1jOMkpRkveMkmvkbIEed6vcNwzjEGsuhK7l5YZdOq8un5ctnK+aKfXy7Y2Vv3izTML6cVIZU76PWXvxWUlzj7MvDq8mVS7wCL7Vu8n7r2eD2rxz8DK87P3fd5mdwq7z8HIlTN654fjoyIpr4bqpfDNPWubpZFN8k4N7JR74vB/xLhnNdjp8Qw1uTsphrJoitv77HTlKSS9bKOdPTbhUuhA6ZqtC5tcRot03GdN6NbfCUXquTXeVCpSq208ppxktm7xTXxTNFu47xeYPFXDHyeXBzn8KrnJfZ8qWv8AV7Xr4n/Y2cs/1fMS5ifTGuUE1prafs+qZYjuO8Y2bw7kx87nzsJainJ7zcWPRLy7JNK6uK/q7fi/VsikoPM8a6F7a2H83Tb/ALZP4PwlsRa7HHdkLn8y+aXxXltZoYDrnYPvDw+J0RycK+F9T9dbjOqX6ltckp1zX6s4p+/VaZ2MyapTnTk4TTUk8mmsmn3p6ouUZKaUovNPY0AAeZ9AAAAAAAAAAAAAAAAAAAAAAAAAAAAAAAAAAAAAAAAAAAAAAAAAAAAAAAAAAAAAAAAgPxK+F+rjEHk4qro4lXHpNrlrzoxXSnIa/S9FXfqUoaUXzR6KfAd1lfVrKsq9CWUl5Nb01vT3r/g57i3p3EHTqLNP95rg0Y8cY4Pdj22UZFU6bqpOFlVkeWdcl7NfJ+qkm4yi1KLkmm/jNNe/7w5YvHKubpRnVxaoykt7Xqqr4rXmUt/9uvbcGtyUs6e3PYPL4bkzxM2l03Q9P0q7ob0raZ9FZVL1Ulpr0lGElKK/oTA8foYpT07NVLtQz9Y8Y+q2Pc5Zrf4dUs5a6weyXyfB/HdvS4AAFpIk+3gnHLsa2F+NbZRfW9121ScJwf5r1i9alCScJrpJSTaLxdwvjToy+TF4s68XKbUIZO+TDym/Tnb6Y1rfTllJ1yeuWcXJVqiAaILFcGtsTp9Wsu0vZmvaj/lcU9OTyakLO+q2kutTem9PY/8AD7/lobJKR5M2u5DxXZ/COWi1yzcBaX2eyX3uNHfX7NbLqlp9KbG6ukVHyfik74d2HfDw/i9Pm4V6m4pebTP4MnHfytq22vpJOUJesZSXUwnGOjt1hj6011qeek0tO7NbYvnpwbNBssTo3ayWk/de3w4r14pHdQAVclwAAAAACOO9Hw+8K4um8rGir9JRy6dU5Udb0nZFfeRW393arIdX8KfUp53oeCTieFzWYUlxKhbeq4+VmwjvonRuUbmo+sqZ80mnqmO0jQoFnwzpHe4flGnPrQ9yWq8N8fBpcUyIu8Lt7nWSyl7y0fjufimY4ZOPKE5V2RlXZB6nXZGVdlb1vU4SSlF6aepJPqes1g7xO53hvFYcmdi13NfhtXNVkVfsX1uFsV/d5uV9U002nVXvI8Al8N2cKyo3x6v7PmNV2pfKu+uHlza9ErK6unrY366th3TKyuco186c+/WPhJbPFJLiyoXOB3FLWHbj3aPy/wAN8kVJBzvbHsJm8OsVWdi3Ys22o+bHULGvXy7YuVVuv9nOXRr5o4IvUJxqRU4NOL2NPNPk1oyvNOLyayfBrJrweqAAPQ/AezEyp1zVlc512R/DZXOVdkd+vLODjKP7mj1g/HroCYuxXi247hKMftf2uuOlyZ0ftLaXt53NDIb/AL07Z9fVPWid+xn8INRLUeIcPtof9ri2RyYP6yrsVNkPyi7vnv2KTArd50cw67zc6KT4x7L59nJN80yUoYnc0fZm8uD1XrqvBo1L7HeIvgme4Rx+I4/mT/DTdP7LkSfyjTf5dkn9Ixfz9CR4y31XVPqmvRmNkop9Gtr5Pqmdp7Kd6XEsH+Z5+Vjr9SNrlT/5NnPTv6uspV30Ci9bWs13TWf6o5f2snaPSKS+uhn3xeXpL/JrWCKvDF24yuI8GxsrMsVuROeRCdihCrnVV9lcW4VxjBS5YrfLGKb66XoSqZRdW8ratOhPLrQlKDy2ZxbTyzyeWmmngXGjVVWnGpHZJKSz26rMAA5T2AAAAAAAAAB8HGeAUZMHXkUU31yWpV3Vwurkvk4zjKLX0aPvB9Rk4vNPJn40msmQr2p8HnAMrqsP7LL2lh2Tx4r/AHUW6H++pv8AIhjtX/B6zTcsDiSa09VZlPxb9k76JJa9v5ttf3i6ILHa9I8StvYrSa4S7a/Xnl4ZEXWwq1q7aaXLs/25Z+JmP2v8KXHsJOUsGWRBb3PCl9rX7q4qOQ9/Sj89dCKc7FnVPy7YTqsS267YSqtS+bhNRmv3o2OOK4/2VxsuDrysenIg/wBG6qFsev0mnr9xcLTp5Vjpc0YvvjJxflLrJ+aISt0di9aU2u6Sz9Vll5MyBBon2v8ABDwPJ5nTXfg2S682LdJ1p/Si/wA6mMfblrhWtenL6kHds/AJxGpuWDlY2XD9S7mxL0vZJpW1Tf1cql/7lztOl2G3Gjm4PhOOXqs4+bRBVsGuqWvV6y+68/R5S9PmVdB2rtn3VcT4dt52DkY0V62Sgp0LrpbvqdlC2+i3Z1OqRlvquqLdTqwqx69OSlHimmvNaENKLi+rJNPg1k/J6nkAHqfIPzOtPo0mvk+qP0ANpKPd14mOM8M1GrLnfSnv7PmOWVUl7qEpy82pa9I12Rgn15XuW7Sd23jv4fk8tfEap8PtbS8xN5GG383ZGEbKl7vzK+SPvY9bdCgVnEOjlhfZupTyl70Oy/HLsy8UyUtsTuLfSEs1weq/yvBo2E4Jx2jJqjdj3VX0zW4W02Rtrmv7s4Nxf7mfeZF9je3+dw6zzcHKuxZv8XlyThP0/lKpqdNnp/WVy17aLW91vj4TcauL4/LvS+2YicoL63YzbnFenxUytb3/ACcUmzLsT6F3dvnO2f0keGya8NkvB5v3UW21x6jU7NVdV8dsfPavFZd5ccHD9le1+LnUxyMPIqyKZellU1NJ+8Za6xkvRwklKL6NI5gz6cJQk4yTTWjTWTXg9hZYyUlmnmgAD4PoAAAEFd9XhH4fxXnvpSwc57fn1QTqvl/1ihOEbG+n3sXC30+KSXK51B3Wd7Xs6iq283GXdv7mtjXc80c9e3p149SrFNfvZvT7zJzvN7pc/hF3k51LhzP7q+G54uT6v7q7lSckk265KNsV1cEnFvp5r/2l7MY+ZTPHyqa76LFqddkVKL+T+akvVSi1KL6pprZRnv78GWRg8+VwtWZWGk5Tx3ueZiJdXydN5NUV/v4pLau25racE6X0bzKjdZQqbE/sS8X7LfB6Pc9iKJf4LUoZzpZyh6ry2rvXltZAfYvtzl8Ovjk4V88e2OtuD+C2K38F1b+C2vq/gsUkm9rlaUleTuO8Z+Jn8mNxHy8HMeoxm5aw8qT0lyWT/kbJNpKm2T22lGyxvSz9jLfVdV/7hoseLYFa4nHKtHKaWSmvaX+5dz8MnqRdniFW1edN9nfF7H/h968c9hsmmeTN/uQ8Wmfwnlovc87AWkqZyX2jGjv/AFa2XVr2VNsnX0SjKlb3fPu371MHi1Hn4V8bYrSsrfw3Y8mt8l1b+KEvlv4ZLrFyWmYZjHR66wx5zXWp56TWzuz3xfc9ODZoNjidG7WUdJb4vb4cV+2kdtABWCWAAAAAAAAAAAAAAAAAAAAAAAAAAAAAAAAAAAAAAAAAAAAAAAAAAAB07vZ7zqOEYN2bkbkoajXXH8eRdPpXVD6yfVv0jBSk+kWdxKF+PXt3K7iNHD4y+6w6Y3TivR5GRvTf96uhR5fkrpfrFiwDDFiN7CjL2NZz/Ctq/wBTyj3Z5kZiV3/0tBzXtezHm/8AGr8Mib/DN4pY8Y5sXNVVHEIuc64w3GnLq25fdKUpPzKY6U4N7kl5i6c8a7CmOnD+IWU2QtqnOq2uUZ12VycJ1zi9xlGS6pp//wCOu2aFeGXxP18XrjiZcoVcSrj6dIw4hGK620rpqxJbspX4eso7jtQtXSfox/0rd3aR/hbZRX2O9fd4+7y2Q+E4t9LlRrPt7n73dz+PPbYEAGZlrAAAB0zvT7pcLjGM8bMr3rbquhqORiza15lM2nyv5xalCa6SjJdDuYPajWnRmqlOTUk8008mjznTjUi4TWaejRl132eH3O4Ja/Oj52JKSVObXFqqe/SFsdydF3tyybjPpySl8UYxibD8X4RVkVTpvrhdTbFwsqsip12RfrGUZJpp/JopT39eCa2jzMvgyldT1nPAbcsildW/s02274/KmX3q18MrdxgtqwLphTucqF61GpsU9kZc90G/yvu0RRMQwWdLOpQzceG9f7l689WVOB5sg03FpxlFuMoyTjKEovUoyi9OMotNOLSaaaaR4NLKsD7eC8auxrYX49tlF1fWFtUnCyG/XUl7P3i9xkujTPiB8tKSaa0ejR+p5aouF3P+PCUeWjjVfMvRZ2NW+ZLXrkY0duT2utmOuu0vJWnJ287NdqsbMpjfiX1ZFM1uNlU1OP5PX4ZL3jLTXukZAnPdi+3mZw65X4OTbjWbXN5cvu7kv0bqnuu6PyVkJa9VyvTWd4r0MtrnOpaP6OfD7D8FrDwzX3Cy2eOVaXZrdqPH7S8dkvHX7xrqCn3db4+K5ctXGMfymkl9sxVKyqT+dmNqVtf51Sv31+GBanst2wxM6pX4eRTk1Ppz02Rsin7xlyt8sl7xlqSfqkZHiGD3eHyyuKbS3SWsXyktPDR8UXO1vqFyv4UteGxrwevjs4M5gAEMd4AAAAAB8vEuGVXQlXdXC2ua1KuyEbITXylGScWvzRAXeB4IOD5e543mcOt/6u1LGb9ubHsTjGKftTKn8/TVhwSNniNzZy61vUlHk9HzT7L8Ucte1pV1lVin4ark9qM5+3vgq41h7lRCviNS/Sx5Kq5L5yx7pJ/LpVZdL16dNuDeJ8Lton5d9VtFi3uu+udFq10e4WRjLo/obFHDdp+xuJm1+VmY1GTX+pfVC2KfzXPF8rXs1pr5mgWPTqvDKN1TUl70ey/LWL8OqVu46PU3rRk13PVee1epkKDQLtv4EuEZHNLEnfw+xttcknk4+386rpOSj/drtqS9tLoQF2z8DfGsbcsd4+fWlteVP7Pe/p5NzUPy1kS/JF8s+lWG3Wn0nUfCa6vrrD9RXa+EXVHbDNcY6+ntehXoHKdpOyuVhS5MzGyMWW+VLIpsoU38oSnGMZ/PcHJNdTiy2RkppSi809jTzXmiIayeT2gAH0fhpD4LP9HsT/FzP83cTkQb4LP9HsT/ABcz/N3E5H8v43/8hcf16v8AfI1jD/5Wl/Th/agACEJAAAAAEXeJrtXkYPBM3KxLXTkVPG8uyKhJx5suiEuk4yi1KEpRe4vo36PTOm1t5XFaFCLSc5xgm9mcmorPLN5a6njWqqlTlUeyMXJ5dybJRBQDsr49OLU9MqjEzYrXXUsO5/Pdlatr/LWOtfUmrsl48uEXaWVVlYUnpNyh9ppT+k6Oazl305pUx+b5SzXXRTE7fX6PrLjBqX6fb/SRVHGbWpp1uq/vLL19n1LKg6t2R70+G5/8zzsXJa9YVXQlZDfpzV78yG/lKKO0lVqUp0pdWpFp8Gmn5PUmITjNZxaa4p5/AAA8j7AAAAAAPEo76Pqn6r2ZF3brwycE4hzyuwaqrZ+t+Kvst7ftJyq1Gxr/AGsZp6Saa6EpA6re6rW0uvRnKL4xk18Dxq0adVdWpFNd6z+JSftv/B93R3LhufG1a6U5sOSxv/8AuKI8j+Wvs0fzfoV17cdznFOG7+24N9MFv75RV2Ppe7vpdlUd+qU5xlr2NYj8zgmmmk0+jT6p/mi8WPTa9oaV1GpHvXVl5x084t95X6+AUJ6024vzXk9fJoxtTPJpf3g+ErgnEOaX2VYl0uZ+dhaxpOUvWU6op0Wy315rKpS3vr8T3WHvE8C/FMXmnhWV8RqW3yJLGy0vZeXOUqrHro5Rug2/Stb0tFsOluH3eUZS+jlwnovCS7Pn1eRWbjBrmjql1lxjr6bfLPmVuB9XFeFW0WOm+q2i2PWVV1c6bYrbW3XZGMkm09PWnpnylzTTWa2EGAAfoOZ7I9ssvAu+0YWRbjXdNzqlrzEntRsi9wtiuvw2RlHq+nUt33Q+PGufLTxmpVS9Fm40Jyol16edQnOyt6fWVfmQbTfLUnpUrBB4lg1piMcriHa3SWkl47+TzXcd9rfVrV505acHqn4fNZPvNhuD8ZpyK4XUW13VTXNCyqcbK5p+8ZRbT/4n2mT3dn3vcQ4Rb5mDfKEW92Y8tzxcj/EpbUebXTzIclq9FPXR3o7kvF3gcV5KMjlwc6WoqmyadGTL5Y9zUVKT/spqNnXSViXMYxjHRO6sM6lL+JS4pdqP4o/NZre8thebHGaVxlCfZnwb0fJ/J5PhmTyACjlgAAAAAAK2eIfwg0cR58zhyhjZ73KdelDGz3/fSX3V7/to/DL9OMm1OFDONcEuxrbKMiqdF1UnGyqyPLOEl816NP1UotxktSi5JpvYYijv48POJxyn40qM2uOsfMjHc4a21Xclp3UNt7hJ7jzOUHCXV6R0e6WTtMre8blS0SltlD5yiuG1LZnpEq2JYNGtnVoaT2tbpfJP0e/iZhnO9iO2+Vw3KrzMOzyr6+ifVwtg/wAVVsE15lU9Lmg2uqUk4yjGUfb2+7v8vhmTPEzKnXbDqn1dV8Pa2mekrK5fNdU9xkoyUorrptidO4p7pQlHuakmvJplDalTlvUk+TTXqmjVjuW72aeM4FeZUuSf8nkU728bIilz17aTceqlCWlzwlF9NtLvZn54Fu3ksfi08Jt+Tn0y1FvpHIx4ysrkl6Jyq86La6y1WuulrQM/nDpDhiw69lRh7DSnD8Lz0/0tOPhmahhl27qgpy9pdmXNb/FZPxyAAK0SoAAAAAAAAAAAAAAAAAAAAAAAAAAAAAAAAAAAAAAAAAAAAAAAAMwPFRKT7R8W5vXzqF/2Vg4qj/8At5TT8z+8dvYiVHFq81R+6zqIbkl0eRjJVTUn83T5Gt+qjLW+V60PoPWjTxCUJbZUpRXNShPLyi34FZ6QU3K2jJfZmm+WUo/GSK2nuws2dU4WVzlXZXJTrshJxnXOL3GUZLqpJ9U0ekG7tZ6Mz0v14ZfFnDiPJgcRlGrP0o03PUKuI6XovRV5PRt1JKNi+KH6VcLMmNn/APB/k11TXyafVP2Lf+HPxmuHJg8asbh8MKOIS23H0ioZj6tretZPolvzdadrx7pF0RcW7mwjptlTW7i4cVxju+zp2Y3XDMazypXL5T+Uv8+euruoD8U3KSUotSjJKUZRacZJraaa6NNdU10aP2ZMXMAAAAAAh3vs8MHD+Mp2tfZc3Wo5dKW569I5FfSN8fbb1ZFdIzjtp0M71+4/iPBrOXMp+5cuWvLq3PFu36JT0nXN/wBnbGEt71zrUnqqfNxHhtd1c6ra4W1TTjOuyKnXZF+sZRknGSfyaLpg3Sm6w7KnPt0vdb1ivuy3cnmuCW0gb7CKVznKPZnxS0fNb+ej79xjqC7ffF4E6ree/g9ix59W8K5t4038qLes6N/qzVtfol5SRT3tb2Ny8C54+bj241y38NsdKaWtyrmt12w6r46pTim9b30NrwzGrTEY50J9rLWD0kvDeu9ZrvKJdWNa1eVSOm5rVPx+TyfccMACcOAHKdmu1WVhWq/EyLca1fp0zcHJfKa/DZH+7ZGUfocWD4lGM04ySaejTWafNPRn6m081tLV92/j3y6VGvimOsyCSTyMfkoynrS3KpuGPZJ+r5JY6T9F16Wm7uu/3hPFNRxMyt3Nb+z2/cZS66/krNSkt/pV88fqzK4/NlSfRpNfVbKPiHQ6xus5Uk6cvu6x/I9PBOJP22N3FHSXbXft/MtfNM2VBmF2B8UXG+HajVlvIqWkqc1Syq0vpNzhkR+Wo3KK+XqWR7CeP3Cs1HiOLdiS11tp3l4//hjFZEfnqNVvv8XpvOL7odiFtm6aVSP3Nv5Xk8+XWLPb45bVdJtxf3tnmtPPL4lrAdZ7G95fD+IR58LMoyVrbVdidkP263qyD9tTjFp9DsxSqlOdKThUi01tTTT8nqT8ZxmutFprinmAAeZ9AAAAAAHozMGFkXCyEbISWpQnFTjJfJxkmmvzREPbDwi8BzG5PCWNY9/eYc5Y3V/pOqL8iUt9dyqk377JlB2W17cWr61CpKL+7Jrzy2nhVoU6yyqRT5pP4lK+1/8AB72JN8P4jGfyrza+Vv5bvx46Wl/1br9CFe1vhb49h7c+HzuglvzcSUcqD/KEGr//ABUr6bNPgXK06aYhR0qdWa+9HJ+cMvVMg62A209YZx5PNfqz9GiEvBtiTr4BiwshOucbcxShZCVc4v7Xd0lCaUov6NIm0Ap17c/9VcVK+WXXnKeWeeXWbeWe/LMm7el9DSjTzz6sVHPjkkgADiOgAAAEMeMT/RziP/dP87jEzkMeMT/RziP/AHT/ADuMTGDf/IW/9el/9kTgv/5ar/Tn/azNMAH9RmTCL01JdJR6prpKL+afqn9USP2P8RnG8HlVHEb5Vx/qsjly65L9V+ep2Rj9K7K2l0TRHAOevb0q8erWhGS4SipL1zPSFSdN5wbT4ptfAt52O/hBrY6jxDh8bF03bhWck3/uL3yv57+0R+Wl6k9dh/FZwPP5YwzI49stJU5i+y2cz/QUpvyZy301XbPfs2upmSGim3nQ3Dq+tNOm/uvT8ss14LIm6GN3VP2mpLvXzWXrmbIU3KSUotSi1tNNNST9GmujT+aP2ZH9jO8jiHDn/EczIxVvfJXP7ltvbbompUSbfq5VvZYTsL4/M6rUeIYlOXD+0x942Ql9YSc6bJb+XkL/ANyi3vQe8o5u3lGouHsS8pPq/q8Cw0OkFGelVOL/ADLzXa/SXsBEHd/4reCcQcYQy1jXPX3GYvs09y/RjZL7iyW+mqrZvf5rcuwmmtp7T9GuqZQ7m0r2supXhKL4Si15Z7eZYaVenWXWpyTXc8z9AA5D3AAAAAAOu9te7zB4jV5ObjVZMPbzI/HD612LVlcv71cotfMqr3oeAX8VvB8n5v7JmSbWunw1ZMYuS110r4zbet2x9S5gJzDsavMPf8Co1H3XrF/6XouayfeR91YULn6yOvFaPzXwea7jIfth2JzOH2+RnY1uNb11G1LViXq67IuVdsV7yrnNL3aOENfu03ZXGzaZUZdFWRTL8Vd0I2QbXo0pJ6kvVSWmn1TRUrvc8Bn47+DXdesvsWTLcX6fDRkPrHS3qF/PttfewRrGF9NLa4yhdr6OfHbB+O2PjmlvmU27wKrS7VF9aPD7X+JeGT4RKbA5LtF2ayMO6WPlUW490PxV2wcJfnF/hnB+04OUJe0mcaaLGSklKLTT1TTzT5NaMrTTTye0Hho8g+j8LGdxnjJzOHcmNxDzM7CWoxm2pZuJHWvhnJr7RWvXktl5iW+WxpRrL2dju2mLxCiGTh3wvpn6Tg/Rr1hOL1KE4+koTUZRfqkZDnbe7PvTzeEZH2jCt5G9K2qScsfKit6hdXtcyW3yyTjOG3yyW2nn2OdEqF7nWtsoVduX2Zc0vZb4rxTzzVjw/GalDKFXOUPVcuK7n4Pc9ZgRH3E+JDC43XyR/i+dCPNdhze5aXR2UT0ldVv3j8cE488Yc0eaXDELq1rWtR0a8XGS2p/Hg09zWj3Mv9GtCtBTpvNPf+9jW9bUAAch7AAAHQ++HubxONYrx8mPLOO5Y+RBLzsSxr8UG/WL6Kdcvgml16qMo5qd5/dhl8Iy54mXDUluVVsd+Tl1b0ram/b2lB/FXL4X+jKWs50fvf7osXjOJLFyVqS3Oi+KTtxLdaVlbft+jOD6Tg3F+zV36OdI54bP6Krm6Deq3wb+1H/uW/atdsBimFxuo9eGlRfq7n8nu5Gd3hqk/wD/AKDhPL6/an/wdFyn/wDs5n+739DUkot4Ze4LMw+0k45lelwymd3mJPysh5CnRjWVP3hZHz563zQlXyySaklek6umt1SuLyn9FJNKjHVPP2pTkvRp+J44DRnToS66ybqPTkoxfqmvAAAz4soAAAAAAAAAAAAAAAAAAAAAAAAAAAAAAAAAAAAAAAAAAAAAAAAI+78u6KrjWBZiTahamrca5x5vs98U1GWvVwknKuxJpuuckmnpqQQe9vXqW9SNWk8pRakn3r968dh51KcakXCazTWTRkD2q7KZGDkWYmXVKnIqepwl6NdeWcJaSnVPTcLI/DJfk0uKNV+9nuTwOM0+XmVfHBNU5Nb5MnGb9656acdpN12RnXLXWL6FBu+zwycQ4M5Wyj9qwdvly6ov7qPssmvq6Ze3OnKp63zxbUFv+CdKLfEUqdTKFbZ1W9JP7re3P3XruWe0zi/wmra5yj2ocd65r57OWwiEAF1IImzuE8UuZwZxosUsvh+9PHlLVuKt9ZYs5dEktvyJark9alS3KT0B7v8AvIwuKY6ycK+N1b0pJdLKJtKXl3Vv46rEmnyzSemmtppvJI5/sP2+zOG3xycK+dFq0ny6cLop78u2t7hZB/KS2t7i4y1JUTHOitDEM61HKFbbn9mX4ktj+8teKemVgw/F6ltlCfahw3rl/h+DRroCufcf4ysPiPJjZyjg5r1GLlL+J5cm9JVWSe65vp91drrJKE7nvVjDD77D7ixqfRXEHF+jXFNaNcuRf7e5p3EevSea9VzW1AAEedIAAAOE7XdicTPpdGZj1ZNT68tsFLlf60JfirmvacHGS9mjmwfcJyhJSg2mtU08muTWqPmUVJZSWa4Mpd3qeAiS5reD3qS/+zypPa+flZXXfT0hdHbfrd10qp9qeyWVg2+RmY9uNb11C6Dhz8utuuX4LYra+OqU4dV16mvpxPabsnjZtUqMuirIql612wU4/mtrcZL2lHTXs0aJhnTW5t8oXS+kjx2TXjsl4rN+8Vm7wGlU7VF9V8NsfLavDRe6ZBAu73l+AbHs5rOE5EsafqsbJcrsZ+vSF2pZFe3rrP7Rr0SXtVfvD7mOJ8Kb+3YlldaelkQ1diy+TV0NxjtvSVvlzb/RNUw7HrK/yVGout7kuzLyfteDfMqFzh9e21qR095arz3eOR0oBMFgI4AAA/dF0oSjOEpQnHrGcJOE4P03GcWpRf1TRLfYjxX8dweWMcx5VcdLy82P2rp8vOco5H5N3PT10aWiIQclzaULmPVrwjJfeinlyz2eB7Uq06Tzpyafc8vhtLs9i/4QXHlqPEMC2h/2uLYsmt/WVdipsh+UXd09/RE79jPEHwXPcY43EMd2TW402z+z5D/Km7y7Hr6RZleeJQT6NbX16lKvOhVhW1o9am+59aPlPN/qRO0ceuaek8pLvWT846ejNk0zyZM9ku93imB/M+IZVC6fArPNpWvlTcraV9dV9ff0Jt7I+PfilOo5ePi5kVpOUebEua923FWVOXvpVQTf6pS7voNe09aEoTXDPqy8pdn9RO0ekFCWlRSj6r07XoX5BXDsj47uDXtRyYZWDL03bUr6X+U8eVs9fWdVf7yaOyXedw7PW8PNxsn5xquhKcXrepV754vXqpRTXyKbd4VeWn19KcVx6ry/Ms4+pOUbyhW+rmm+Gevk9fQ7OACKOwAAAAAAAAAAAAER+LHhNt/Z/PqoqsusksZxrprnbZJQy8ecnGEFKT5YRlJ6T1FN+zJcB12lw7avTrpZuE4zy49WSll45HhXpfS05U28utFxz5poxuyK3Ccq5qULI9JVzThZB/KUJJSi/o0mfk157Sdi8PMjyZeLj5MNa5bqoWrX05ovX7iFO1/gc4JkbdEcjBm+u8e5zr/J1ZCuio/Svy/o0bLadOrSppcU5QfFZTX/AGy9GUet0frR1pyUv0v5r1RniC0PbHwC8Rq3LCysbLh1ahbzYl+vZLpbVN693Opb9vcgrtj3S8U4f1zcDJx4r1scFZQvzvpdlK37bs6/uZc7TF7K8y+gqxb4Z5S/LLKXoQVazr0PrINd+Wa81mvU6mDxGafVPa+a6o8kwcYAAB4aO8dgO+zivC2vsebdCtaX2eyXn4ul7Ki3mhD86lXL+8dIB41qNOtFwqxUovc0mvJ6H3CcoS60G0+KeT9C6fd14/65ar4riOp9E8nDcran06uePL72tb9FXZkNp+i18VnexfeLg8Rr83ByqcmK/F5U1KdT/Vsr/HXLr+GcYv6GR59fCeL249kbqLbKLYdY21TlVZH30pQaen7remujTRQcR6FWdfOVs3Tlw9qPk31l4PJe6WK2x2vT0q5SXk/NaPyz7zYgFBe7Dx08QxeWviVa4hUujtjyUZsV116KNF2ui1KNLa6uyT3zW87su/PhnF4/xPJjK1Lc8ez7rKr/ADql1lH1+OvnrenqT0zLMT6PXuH5yqwzh78dY+O+PikW60xOhc6QllL3Xo/8PwbO/AArZKgAAAAAHVu8HuwwOKU+RnY8L49eSTXLdQ2tOVNsdWVS+sJLfvtdCkHfX4Ms3h/PkYHPn4a3JwjHebjR9firitZEV1+OpKetbq6SmaEAseE4/d4bL+FLOG+EtY9+XuvvXjnsIu8w2jdLtLKW6S2+PFdz8MtpjXGR5NGe/Xwk4XFufIx+XD4g+rtgvuMprelk1Lo2/wC2rSt6R5nYoqBQjt73eZnDMh42dRKm3q4vfNVfBPXmU2L4bIPo+mpR2lOMJPlW54Pj9rikf4byqJawe1cWveXevFLQz69w6raPtrOO6S2ePB93k2ddABZSMPo4dxGymyF1Nk6rapKddtcnCyqa9JRlHTT9vqm09ptF7PDb4va8/kweJyhTmv4acjpCjP8ATUWuiqyX6cn4LWtw5XLylQsNEFi2DW+J0upWWUl7M1ti/muMdj7nk1IWd7UtJ9aGzetz/wCeD+WaeyYKWeF/xduHl8N4va3HpDFz7Htx9o05c29v2jDIe296se/vJXSTP56xTCq+G1voay74yWyS4r5rat+40qzvKd1Drw8VvT7/AJPeeQAQx3AAAHjR5AAAAAAAAAAAAAAAAAAAAAAAAAAAAAAAAAAAAAAAAAAAAAAAAAAAAAAAAB+bK1JNNJppppraafRpp9GmvY/QAKq9+HghoyefJ4Q4Yl73KWJL4cO96/qtdcabevwqVL/Ug25lKe0nZjJw7p4+XRZj3w/FVbHllp+kotbjOD09WVylCWnqT0bAHT+8vulwOL0+TnURsS612r4MjHl+tVbH4oei3HbhNdJRkto0bBemFa1ypXec6ezrfbj4v213PX72WhV77A6dXOdDKMuH2X5ez4ad28ycBOHff4T8/hHPfVvNwFt+fXB+djR6/wA5qjvUYr1vr3X0bkqVpEHJm0Wl7QvKaq281KL3rd3NbU+55MotajUoy6lRNPg/3k13iUd9H1T9V7Mm3uZ8WPEuE8lM39two9Ps90n5tEflj3/E4JL0rsVleuiVfqoTAu7Ohd03SuIKUeD+Ke1PvWT7xRrVKMuvTbT7vnua7mand1Pf5wzjEf4pfq5LdmLcvKyqui38DerILevMplZXvpzbTSkUxwxsiUJRnCUoTg+aE4SlCyuX60JxalGX1i0yyPdR44c/D5KeIw/6QoWl5u1XnVxW+vO/u8h+nSzy5vq3bIyXFehFSGdSxl1l7kmlJcpaRl45Pdqy52ePxl2bhZP3ls8VtXr4F/gdE7te+/hnFo7wsqE7OXmnjz+6yqlvT5qZanpPpzx5oP2k9pnezMq1CpQm6dWLjJbU00/Jlrp1I1I9aDTXFPNegAB4HoAAAD82VppppNNaaa2mn6pp9Gn8j9AAhLvE8H/Bc/mnGh4N0m35uFy0qUpPbc6XGVE231b8tTfX4ltsrP2/8DHFsXc8OdXEa1v4Y6xclL2+7tm6paXRuN6betQ66WgoLXYdJ8Qs8lGp1o+7PtLz9teEku4hrjCbavq45PjHT09l+KMfOPdnsjFs8rKouxrNtcl9U6ZPXryqcY86/vR3FrqmzjzYHj3ZvHyq3Vk0U5FT9a7q4Wwf/Zmmtr2fqmQP258DXB8nmli+dw+x9fuJu2jf+Bc5KMf7tMqV8tGh2XTq2qZRuoSg+K7UflJeUitV+j9WOtKSkuD0fzT80Z7AsT218DPGcbmliyx8+tLa8uX2bIf08m5+X+9ZD316IgvtN2UysKXJmY1+LJvSWRVOlTfyhKaUZ/8AYclovdpiVreL/wBvVjLuT1/K+0vFFerW1Wh9bBrmtPPY/M4oAEkcwAAAPzKtNptLae09dYtejT9mvmj9AH5lmd+7Kd/nGsLSx+JZSiv6u2f2qpr5cuQreVe3wcr10TRMfZPx+8Sr0szExMqP61Lsw7dfXbyK5P8AKFa/P3q8CFusFsbr66jBvio9V/mjlL1O+lfXFH2Kkl3Z5ryea9DQTst47+C3JLJjlYUt6fmUyyK9/NSxfOly/WVcH80iZuynenw3OX8UzsXIf6td0HYvzr2px177itMyVPDgtp+6e0/eLXo0/VNfNFRuug1nU1oznB+E15PKX6iZo9IK8frIxl+l+azXobKAym7J9+vGcH+b8Sy4x3/J22vKq/JV5Pmwiv2FHZMnZTx+cTq0svExctbW5Vynh28vu3pX1uXv0rgn6aXqVC66D31PWjKE1z6r8pdn9RNUekFvL6xSj4Zr019C+oK59k/HXwa/UciOThSfT72rzat/4mO7Gl/enCC18vQmjsn3kcPz1vCzcXJ16qm6uycX8pQUueL111KKein3WFXlp9fSnFcXF5fmXZ9Sbo3lCt9XOLfDPXy2nZAARZ2AAAAAAA8NHkAEadt/DfwXiHNK/ApjbL1vx19lvb9m7KeRza/v8y10010K/dt/4Pn1lw3Pfu1TmwT38ksihR5V7fFjzb+a11uYCwWWP39nkqVWWXuy7S8pZ5eGRGV8Ntq+s4LPitH5rLPxMru3Hh+4zw7bycC7y09efjr7VR+0508zrj9bo1fufQjyM0+q6/kbJka94Hhx4NxPcsnCrjc3t5GPvGyG/nKyrl8319LVZH06dFq/2PTxaRvKX+qH+2T/AO7wK5cdHXtoT8Jf5iv+3xMtwWx7wfAFlV7nwzLhkR3tUZS8i5L5RugnVY/ZKVdK+cunWtfbHsJm8Ps8rOxbsWbeo+bBqux9X93at1W9E393OX7jRLHF7O+X/t6ib93ZL8sspeOWXeVm4s61v9bFpcdq81p8zggATBxg/dF0oyjOEpQnBqUJwbhOuS9JQlFqUZL2lFpo/APwFj+6fxucRwuWriC/6Rx0kudtQzq181a9Qv0unLaozk11u9d3O7tO+Th3F6+fByI2SS3ZTLdeTT1195TLU0t+k0nCXqpSTTMoj6eF8UtosjdRbZTdB7hbTOVVsH/dnBqS3rqk9NdHso2K9EbS8znR/h1OMV2XzjsXNZcWmWCzxmvQ7M+1Hveq5P8Azn4GxQKUdzPjqsg4Y/GYeZDpFZ9MUrIe28jHgkpr52UafX+SfWRcXs92jx8umGRjXV302LcLapqcJL8031Xo09NPo0mtGM4ng11hs+rcR03SWsXyfHueT7i8Wl9RulnTeu9PRrw+azXeckACEJAAAAHWe8Du5w+KY8sbNpjbW9uL9LKZa0rKrF8Vdi9pRf0e02n2YHpTqTpSU6baknmmnk0+5o+JwjNOMlmno0zNDv78M2ZwSbtjzZXD5S1DKjH4qG/w15UY9K5eyuSVVj0vu5SjWQ2bGZuFCyEq7IRsrnFxnCcVOE4tacZRkmpJro000yiviT8IM8LzM/hUJWYfWd2JFSndhdes6fWVmOvVwfx0pN7nD+S2vo90tjc5W160qmyM9in3PdGXDc+55KVExLBnRzq0NY71vjy3teq71m1V0HiMt9V1T9H7M8mmFVDRavwreKx4rr4ZxOzeK+WvEyptuWG2+WNN0uu8fqlCx68jWpN1tOmqjZNHcl4Vs/jPJdNPDwJaf2myDdmRFv8A1Wp68xNb1dPVXVNeb1iV/HKNlVtJK+aUN0t6lucd7l3JPNZrJrMkLCdeFZO3TcuG5rfnuy792muw0qTPJw3Y3stXg4tGJVK2dePWq4SusldbKK9Oacur+SXRRSUUkkkuZP5nmoqTUXms3k8ss1ueWuWfDPxNWjm0s9oAB8H0AAAAAAAAAAAAAAAAAAAAAAAAAAAAAAAAAAAAAAAAAAAAAAAAAAAAAAAAAAAAAAAeGitXfl4L8TP58nhzhhZj3KVemsLKk+r5oRTdE3/aVLlbbcq5t8yssCRsMRuLGp9LbzcXv4NcGtjX/lanLcWtK4j1KqzXquT2oyI7Z9iMvh18sbNonj3R21GenGyKeueucW4WVv2lCTXs9PaXBmt3b7u5wuJ0PHzqIX1vbjvpZTJrXPVYtTqml+lCSfs9ptFFe/Dwd5vDefIwvMz8Jbk+WO8zFilv7yuC++iuv3tMU0vxVxScjbcF6W299lSr5U6uzb2ZPub2N+6+Sk2UK+warb5zp9qHquaW3mvFIr2DxGW/Q8l9K8fui+UJRnCUoTi+aE4ScJ1yXpKE4tSjJezi00T93ZeNXi2Dy15TjxKhNdLmq8qEfTUMiEfj16/fQsk/TnitONfgR95YW95DqXFOMl3rVcmu1HwaOijcVKEutSk0+57ea2PxNLe7TxZ8G4lywV7w8iWl9nzOWmUpdeldilKixvW0oWOetbjF7SmVMxslHfR9Ud97ve/Ti3C+WOHmWRqj0WNb9/i6+Sqnvy1/gup/Xq95viHQSEs5WdTL7s9V4SWq7s0++RaLbpDJaV4598dvk9Oeq5Gq4Kf93/8ACA1y5YcUw5VP0lkYbdlXp1bx7H5sFv0ULL31X5ljuwvfFwziSTws2i6TW/K5vLyI/tUWKF0f+1BGcX2CXtjrXpSUfeXaj+aOaXJ5PuLRb4hb3H1c1nwej8nr8u87kACDJAAAAAAAHozcCFsXCyELIS6ShOKnCS+sZJp/vR7wfqbWqBC/bLwgcBzOZ/ZPslkt/eYU3j6b/S8r4sdy313KmW367IN7YfwfN8dy4fxCFq9q8yt1Tf8AvqFKLftryIr32vQu0CyWnSTEbXJQrSa4S7a5drNrwaImthVrV1cEnxXZ+Gj8TLjtb4auO4XM7uHXThH+txuXLrkvmlS5XJft1QfvrXUjSxcsnGScZR/FGS5ZR/OL01+9GyR1/tV3f4OdHkzMPGyo/wC3prtcX6bjKUXKLXs4tNfMudp09mtLmin3wk1+mWef5kQdbo6ttKb5SWfqssvJmRgNDe1vgb4JkNyoWTgzf/29vPX/AOVkRujFfSDgiGe1X8H9n180sPOxslfowurniT18uaLyISevfUE37RLha9LsNr6Obg+E4teqzj5tEJWwa7p/Z6y4xefo8pehVgEhdrfD3xvC27+G5Tgv6yiCzK/zbxna4x/vTUV/7EfWxcZOEk4zj0lCS5ZxfylF6af5pFro3FKuutRnGS4xkpL0zIedOVN5TTT4NNfE8AA6D4AAAB5hLTUltSXpJdJR/Jrqv3M8AAkrsf4keOYPKqeI3zhH+qyeXMrkvk3ep2pf4dsH7bS6E5djv4Qe6Oo8Q4fGxJLduFZyTf8AuL2479/5xFb9kVDBA3eBWF3rVoxz4pdV+cMm/HMkKOIXFH2JvLg3mvKWaXgaY9i/FpwLN5YrMWNZLSVWZF40uZ/oqct0Sl9IWy37bJex8mM4qUJRlGS2pRalGS+aa2mvyMcDneyPbzN4e+bBy8jF671TZKNcn85Vdap/XnhLfvspF50DpS1tarj3TXWX5o5NeTJ+h0hmtK0E++Lyfk80/NGuwKDdh/HpxOhqOdRj51fRc8N4mSvm3KPmUzf0VNfXfxexYfsJ4yuB5vLCd8sG1r+TzY+VDe9aWRFzx971pO2Mn8uj1Q73oxiNprKm5R96HaXku0vFIsNDFrWtopZPhLT1ej8GTkD04mZCyKnXOM4SW4zhJTjJP0alFtNP5pnuKs1loyYAAPwAAAA+PivCKr65VX1V3VTWpV2wjZCa+TjJNP8A4H2A/U2nmtp+NZ6MrL3l+BTh2TzWcPsnw+17arW7sKT/AMKT8yr5JVWRhH+zZUrvO7gOK8I3LLxm6E+mXQ/PxWvnKaSnV/v66uvRORqefmyCaaaTTWmn1TT9U17pl4w3pffWmUar+khwk+14T2+fW5FfusEt62sOxLu2fl2eWRjcmDRHvX8F/DOIc1uKv+jcl7fNRBPFsk9vdmNuMere3KmVMm+rcimHep3C8T4PJ/a6G6N6jl07txZbfTmnpOmT/VujDb6Rc/U1vC+kVliOUacurU9yWj8N0vB572kU27wyva6yWcfeWq8d68dO9kegAs5FA7l3Y97ufwi7zsK5wUmnbRP48bJS9ra9rrr0sg4WL2lrafTQeNajCtB06kVKL0aazT8GfcJyhJSi2mtjTNKe4zxSYPGVGmX8Uz9fFi2S3G7WtyxrOitj/cajbHruGkpOajG2Mmmmm04tSjJNxlGUXuMoyWnGUWk1JNNNJrRbXuB8a86nDD4zJ2VbUK8/TlbStaSy4rbsjvp58Vzx3ucZJSsWP450NlTzr2GbjtdPa1+F7ZLu9rg5brrh+OKWVO50e6W58+HPZy33dB8+BxCu2ELapwsrsipwshJThZGS3GUZRbUotdU02mfQZW008mXBPMAA/ADweQAU18U3hK/leJ8Jqe/isy8Gtb59tynkYsF+n6ysoj+P8UFzbhZU7sl2Pys++ONh0WZF8uqhWl8MfedkpNQrgvedkox3pb20nr2cTwPspi4zulj49NEsix3XuquFbvtl62WOKTnJ/N7NGw3pnXtbZ0asevJLKEm9ndLfJLdqnuz2NVe6wKnWq9eD6qftJL1W5Z792/LanXjuO8FWLhcmTxTkzMtalGhblhY0l1T5ZRTyJxf6VqUE0nGtNKTs5GOui6Jei9keQUu/xG4v6n0txNt7luS4JbEvjteupO21rSto9Sksl6vm9rAAI06wAAAAAAAAAAAAAAAAAAAAAAAAAAAAAAAAAAAAAAAAAAAAAAAAAAAAAAAAAAAAAAAAAAAAAAACv3fj4P8AB4pz5GJy4OdL4nOEf4tlS6/y9MdJSlvrfWlZvTkrUlEol3gd3Gbwu/7PnUSpse3CX4qciK6OdFulGyK6b1qUdrmjBvRrccJ2w7F4vEKJ42ZRDIpn6wmvRr0lCS1KE4vrGcHGUX6NF9wXpbcWOVKvnUpbNX2or7re1L3XpuTiVy/wancZzp9mfo+a3Z8VzaZkOCzHfj4LMrC58nhfPm4i3KVD1LNxl6/CkksmuK6fCvOSS+G1tyKz7/8ARtP5pro0/k0+jXsbZYYjb39P6W3mpLfxT4NbU/jtWa1KHcW1S3n1Kqyfo+T2P95gAEkcwPMJaaktqUXuMk9Sg16OLXVNezTTPAAJV7DeKHjnD1GNebO+qPpVmp5cNfLzJyWQl7JRuSitJLXQsD2K/hBaZajxHAsqe/5XEsV8GvnKq3ypw6+0Z2/P6FKQVy96PYfeZupSSl70ey+fZyTfNMkqGJXNDSE3lweq9dnhkaodivEDwbiDjHG4hjuyS2qbJ/Z8h/lTdyWPXvqL0SEmY2Sgn6rf5nceyPfFxXA6YfEMmmK9K+dXUr8qb420r66gtlHu+gSetrW8Jr/uh/sLBR6RNfXQ8Yv5S/3GsYKHdkPH5xGpqObiY2VHfWdTni3a+evvapP6KNa37roiauyHjm4JkaV/2nBn6ayKfMrf1VmM7ko/WxVv6a2yl3fRbErbV0nJcYPrei7foTtHF7Wr9vJ8Jaer7PqWHBwPZft5hZsefDy8fJj67ouhbr57UZNrT6PaWmc8VacJU31Zpprc1k/JkvGSks4vNcUAAfB9AAAAAAA6/wBp+77AzVy5eHjZK/21NdjX5SlFyj+5o7AD0hUlTfWg2nxTyfmj5lFSWUlmu8r32p8DfA7+Z0xycKcuu6L5Tgn9K8nzoRX92KikvTXqQ32t/g/M6G5YWdjZC9oZELMSev24faISl7dY1p/Ne16AWa16UYlb7KzkuE8p+su15NERWwi0qfYSf3ez6Ls+hln2s8OfHMLfncNyJQX9ZjxWXW/r9w5ziv24QI3lLUnF9JRepRfSUGvVSi+qa+TSZsodf7Vd32DnR5czDx8lf7amFjXy1KSck17NNNMt9r09mtLmin3wll+mWef5kQ1bo6ttKp4SWfqssvJmRgNCe13gW4LkbeO8rBn6/c2+bU/o68lXfD9K51v6+xCfa/wDcTq3LDycbMj7QnzYl2vl182qT+rsrT+SLjadLcNuNHU6j4TWXqs4epCVsGuqX2esuMXn6aS9CsQO29ru6TimB1zMDJoj13N1+bStdOt9LtpX03Z19tnUYTT6p7XzXVFsp1YVY9enJSjxTTXmtCGlGUH1ZJp8Gsn5PU8gA9T5AAAOx9jO8bP4dJSwcy/G67cK5vyZ9dvnolzUz385Vt9XprZZDu98fuTXyw4niRyI+jyMRqm76N0TflTeurcbaVv0j10qmAhr7B7O+/mKUW/e2S/NHKXhnl3Hbb3te3+qm0uG1eT0+Zql3dd/XCeK6jiZlcrWt/ZrH5OUlvT+5s5ZySfTmgpQ9NSe1uQTGxeqfuntP0cWvRp+qa+aJp7tfF1xnh3LCV32/HWl5OY3OcUvavJX30W172u+K0tR9d5tiPQWSzlZVM/uT0fhJaPxUeZabbpCnpcR8Y7PFPXyb5GlQIL7rvGHwjiLjVZN4GTLoqspxjXY/wDZZCflS37Rm67H1+DpsnOMtmaXdjXs5/R3EHF9628nsa71mi1UbinXj1qUk13fPejyADhOgAAAHqysWM4yhOMZwknGUZJSjNP1UovaafumtHtB+p5Aqz3zeBzFyee/hLhhX9ZPGlzfYrpa9I65pYrbX9XGVS3/ACa9SlnbHsVl8PvljZtFmPdHeozXSyK18dU1uFtb2vjhKSTenpppa8nW+3nd3hcToePnUQvqfVb3GdUta56rItTrmv1oST9uq2jQsH6YXFplTus6lPZnn248m/a5PXhJLQrN9glOtnKjlGXD7L8Fs5ryZkgCf+/Xwg5nCufIxHPOwF1lJRTy8Ve7urgkrIL+2pitJvmrrUXN1/jLfVen/ubTZX1C9pqrbzUo921Pg1tT7nz2ZFEr0KlCXUqLJ/vVbmjyADvPAl7uH8SeZwSah8WTgTknZiSl1q2/isxZS6V2a23X0qtf4uRvzFol2B7wcTieNDLw7VbVP19p1TX4q7YP4q7I+jjL81tNN5Hncu6vvazeD5KycOfrpXUTb8jLgv0LYr0a9YWR1OD9G05xlROkHReliCdahlGt5KfdLg+EvB56ONgw3Fp2zUKmbp+seXdxXlvT1hB0Lue75sPjWMsjGk4zjqN+PPXnYtjW+WSXSUX+jbHcJrfVNSjHvpg1ehUoVHSqxaknk09q/e7jtNEp1I1IqcHmnqmAAeB6AAAAAAAAAAAAAAAAAAAAAAAAAAAAAAAAAAAAAAAAAAAAAAAAAAAAAAAAAAAAAAAAAAAAAAAAAAAAAAAAAAAAAjbvI8O/COK80srEgr5f61R9xldPRysgl5mvaNqsj9CSQdFC5q28/pKM3GXGLafoeVSlCrHq1Iprg1n8Si3eD4Bcyrmnw3Kry4eqoyEsfIS+StW6bJfLmjjr5v3dce13YXN4fPy83EvxZbSTurlGubfVeXd1pt/3c5e69U0tdz5uIcOrthKu2uFtclqULIxnCS+UoyTTX0aL/YdN7ujlG5iqi4+zLzS6r/Ln3lbuMAoz1pNxfD2l66+vgY6g0a7d+CzgmZzSpqngWv8ATxJctW97/m81Ohb9+SEG/nvTVeO3HgQ4rj7lh24+fWk2o7eJk9PRKFjlTJv5/aI9fb3NCsulmHXWSc+pLhNZfqWcPNrkVuvg91R16vWXGOvppL0fMrYDmO1fYzMwJcmbi34sm+VefXKuE5a3qFjXl2PXX4Jy6dThy3wnGcVKLTT2NPNPxWjIVpp5Pbw3gAH2fgAAAr6SjOPwzi9xnH4ZwfzjJalF/VNEldkvElxzC0quI3zgv6vJay4P6buU7EvpCyJGoOavbUriPVrQjJcJRT+J6U6k6bzg2n3Nr4FruyX8IJmQ1HOwMfI+dmNZPFlr5+XZ9oi3/vIJv2j7TJ2V8cHA8jlV08jCnL2yKJSgn9bcfzq4r+9OUV9UZ2gql10Qw2vqoOD4wk16S60fJImKONXVPTrKS+8s/VZP1Zrr2Z7e4ObHmxMvGyV/sbq7Wt/NRk2n9Gkc8Y21ScZKcW4zj+GcW4zj9YyWpJ/k0SL2S8RXHMLSp4lkygv6vIksyGvl/GVbKMfbUJRS9tdNVG66BTWttWT7pxa/VHPP8qJqj0iWyrTfOLz9Hl8Wamgov2U/hA86HLHNwMfIX6VmPZPFnr5quayISf054Jv3XoTN2S8cHA8lqN0sjCm//uad1/8Am0Sugl9Z8n7yoXXRfErbV0nJcYNS9I9rzSJqji9rV2TyfCWnq9PJlggcF2X7dYWbHnw8vHyo/Oi6u3XzTUJNxa900mjnSsThKm+rNNNbmsn5MloyUlnF5rigAD4PoAAAAAA8NEc9tfDrwXiHNLI4fR5kvxXUx+zZD+rto5Jya/vORI4Oihc1beXXozlF8YyafoeVSlCourOKa4NJ/Ep521/g+a3uXDuITh6vycytWxfyUbqfLlBftVWt79VrrX7tz4Z+N8P3K7BsurX9dh7zK9fNxrXnRj7uVlMEl66NRAXSy6Z4hQyVVxqR+8sn+aOXm1Igq+BW1TWGcX3PNeTz9MjGxvq17ptNe8WujTXqmn0afVA1b7edyfCuJp/bMKm2bWvOinTkL8r6nC5a+XPr6FcO8H+D+T5p8LzeV+qx81OUP2Y5NUeeK/bpte/0vlf7HppY3GUaylTl39qP5o6+cUu8rlxgVxT1hlJd2j8n8m33FMwd17we5finC23m4dtda/1iK83Ff186vcI7fRK3y5enw9VvpSZeqNanWgp0pKUXvTTXmtCvzhKD6s00+DWT9QAD2Pg8NEm91fiK4rwhxjj3+bjLSeJk812OorXSv4lOjotLypxgn1cJ60RmDmuLalcQdOtFSi9zWa9dj4PaelOpOnLrQbT4p5GjPdF4xOGcS5Kb5f8AR+XLS8q+S8i2b0tU5Oowk23qMLFVZL2jLTJ5TMbJR30fVP29mTH3Q+KfinCOWtT+24i6fZcmcvgXr9xfqdlP0jqypL0rXqZdi3QhPOpYSyf/AOuT0/0yezlL85bbPH2uzcr/AFJfFL5flNMQRn3Q+IThvGY6xrfLyEtzw7+WGTDSW5Rim1bWt/ylUpxXo+V7Skwye4tqttUdKtFxktqay/a4PYy5UqsKsVOm01xQABzHqAAACr/iB8GlObz5nClXjZb5p2Y+lDFzZPcm1rSovlLb50vLm2+eKb8xWgBJ4fiNxYVVVt5ZPet0lwa2NfDamnkzkubWncw6lVZr1Xenu/aehjxxng12NbZRkVTpuqk42VWRcZ1yXzT9musZLcZRalFyTTfxmoHfl4e8LjlOrF5OXWn5GZCO7K/7li3HzqW/WuTWvWMoPqZz94fdnm8LyvseZU43PXlOG7KstOXLGWPLlTsUpNR5eVWKTScItpPfcD6Q0MUhl7NVLtQz9Y8V6rfubznEMNqWbzesHsl8nwfo929Lq52zu37qs/i13kYNDsa/lLZbhjYy6Pd12nGL001Bc1kl1jCWnqeO4/wSZGVyZPF+bFxnqUcSLccy9f7aS/m0GtfCm72n18hx63a7MdlcbCphj4lNePTBfDXXFRivm3rrKUn1lKTcpPq22QuNdMKFpnStMp1Nmf2I+K9t9y0+9tR3WGC1K+U62cY8PtPwfs+OvdsZFPcB4YMXge73ZLJzrK/Lsv611Qg9N100qTShzJNysc5yaXWK1FTWAYrd3la8qutXk5Se9+iSWiS3JaF8oUKdCCp01kl++bAAOM9wAAAAAAAAAAAAAAAAAAAAAAAAAAAAAAAAAAAAAAAAAAAAAAAAAAAAAAAAAAAAAAAAAAAAAAAAAAAAAAAAAAAAAAAAAAAAD05WJCyLhOMZwktSjOKlGS+Ti001+aIe7aeELgWbzP7J9kslv73Cl9nab/S8rUsdv33KmW3676Ezg7ba9uLWXWoVJRf3ZNZ88tH4nhVoU6yyqRT5rP8A8FI+2P8AB9ZEdy4fn12rXSrMg6pv/fUqUH8teRBe+/Yg/tf4dON4PM7+HXyhH+tx1HLrkv1l5DnZGP8AiVwa9WkamAudp02v6OlXq1F3rqvzhkvNMga2A289YZxfc815Szfk0Y2Po2n0a9U+jj+a9V+8Gtna3ux4dnrWZg4uTr0lbTXOyP1jY488X9YyTIW7WeBHg9+5Y08rCk23qu3z6dv/AGd6sklv9GFkEl0WujVztenNnU0rwnB+E15rKX6SDrdH68fq5Rkvyvyea9TPwFm+1XgF4pVt4mVi5iT/AAzU8K1r6Rk763L87Yr6r0Ia7V9yPGMF/wAZ4blwj/aV1PJp6e7tx/Nrj9OeUW/kXC1xixuvqa0G+HWyf5ZZS9CFrWVej9ZCS78s15rNep0kHhTXVb6p6a9016p/Jr5HkmDiAAAAAAP1TY4yU4txmvScW4zj+UlqS/cyTuyXic47hcqr4hbbCPTystRy4S/OVqd//huiyLwcte1o3C6taEZLhKKl8VoelOrOm86cmn3Nr4Fvux/8IPbHUeIcPjP52YVnJJ/7i+XLv3/nCT+S11nLsb4tuA5vLFZixrJaXl5kXjPb/RVkvuJS301C2W/bZmeCoXfQ3Dq+sFKD+7LTylmvBZE3Rxu6p+01Jd6+ay9czY3Fy4TipwlGcJLcZQkpRkvmpJtNfkz3GQvZXtnmYMubCysjFe9tUWzrhJ9Os60/Lm+i/HGRO/Yrx28Wx9Ry6sfPrSSbaeLkP5vzKlKp9Pb7Ouvv7FIvOg11T1t5xmuD7EvXOP6kT9DpBRlpVi48u0vTKXoaBgr92G8bfBcvljkTt4fa/bJg3SmvX+MVc9UY/J2urfTon0J04RxunIgraLar65fhspsjbXL8pQbi/wBzKJd4fc2byuKco81o+T2PwZYKN1SrrOlJPk9VzW1H2gAjzqAAAAAAPzZBNNNJprTT6pp+qa90yE+8rwgcG4jzTjS8HIk9u7D5a1KXznQ4yolv3ahGb6/GvUm4Hba3te0n17ecovueWfNbGu55o8K1CnWj1akU13r4b0Zx95ng14vgc1lEI8Rx1t8+MmsiEer+PGk3N/L7iV+/XUfaCZwabTTUovUotNSi16qSfVNe6aTRskRz3n+H/hXF03lY0VfrUculKnLhr0+9ivjin1ULVZD1+HqzS8N6czjlC+hmvfgsn4x9l+HV5Mql10fT7VvLL7stng9vnnzMsgWH72vBVxLA57sJviWNHctVx5c2qK66lQm1e0t9aHzyetUrelXqytxbjJOMotxlGScZQkvWMovTi17ppNGp2V/b3sPpLeaku7auafaXiio17epQl1asWn+9jWj8D8gAkDnPbi5Uq5xsrlKFkJKUJwk4TrkvSUJRalGS9mmmWw7kPHFZVyY3Gua6vpGOdXBO6tem8muGvNiun3lMfM+cLG3IqUCJxHC7bEKf0dxHPg9ko8ntXLY96Z1213Vtpdak8uK3Pmt/x4M2F4LxunJqhfj2wupsipV2VyU4Ti/dSW19H7p7T1o+4yq7o++/P4Lb5mJZzVTad2Ja5PGyPTb5U91266K6HxLpzKxLkehXcx3/AOBxupvHn5eTBJ3YlrSvp/vR9FbVvorYbjvo+SW4rDMb6M3GGt1I9uj7yWsfxLdwz2PuehoNhi1O67L7M+HHk9/Lb8SSwAU0nAAAAfLlcMrnKuc64TnU3KqUoxlKqTi4uUJNNwbi3FuOtp6PqB+ptbD8yzAAPw/QAAAAAAAAAAAAAAAAAAAAAAAAAAAAAAAAAAAAAAAAAAAAAAAAAAAAAAAAAAAAAAAAAAAAAAAAAAAAAAAAAAAAAAAAAAAAAAAAAAAAAAAAAAAAAADqfavun4ZnfzvAxb3+vOmHmL8rElYtezUlohntT4DeDXJvFnlYUt7XJc8mv8nHJ82fL9I2xf1RZIEta4te2v1NacVw6z6v5XnH0OKtZUK2tSEW+OWvmtfUoV2r8AfE6uuHl4mXH9W3zMO3Xtpavrk/nuytfmQ52q7iOM4W3kcNyoxj/WV1/aatfrc+O7YxWuvxuLS9UjVgFutenF9T0rRhNcuq/OPZ/SQtXo/by1g5R8c166+pjTC5Pemnro9Pen8n8mfs1q7Xd1nDc9azMHGyH+tZVB2RfpuNiSsi9e8ZJkK9rfAbwe9uWNZl4Uuvw12K+hv6wyI2WdPlC6C/MuFr05sqmlaE4PwmvNZS/SQtbo/Xh7Eoy/S/J5r1M/wWW7X+AvitO5Yl+NmxW2otvEva9ko2OdTftt3wT9fhIT7Wd1PE8D+eYGVjr9eVbnSv99U7Kfy+86lxtMWsrv6itCT4dbKX5ZZS9CErWdej9ZCS78s15rOPqdVB4jNPqntfNdUeSWOMAAAHK9mu1mVhT83Dyb8We9uVFs6uZ+nxxi+Sxf3bIyi9LozigfEoxmnGSTT2prNPweh+ptPNbSzHd/47+J4/LDPpqz600nYtYuUo+73CLpskvZeXVv3mtuRZru58V/BeI8sI5P2W+TSWPmcuPOUn+jCbk6bW/ZV2Sl9E9pZmniUd9H1RTb/ojh91m4R+jlxhovGL7OXLq8ybt8ZuaOjfWXCX+dvnnyNk1I8mVndz398W4U4rEy5+TF/za7+MYrXyUJ/FUvf7idT37vbTtX3aePPCv5a+J0TwrHpO+pSvw5PeuqW76t+unCyEVvdnTbzTEeh19a5ypJVI/d9rxg9fJyLVbY5b1dJ9h9+z82zzyLUA+DgfH6MmqN2PdXfTNbhZVONlck/lKLaPvKNKLi8pLJrTIsKaazQAB8n6AAACLu9zw5cM4wnK+nysnWo5lGq8iOk0ufo4XRW/w3Rml7cr01KIOm2uattNVaMnGS3p5f8AlcVsZ5VaUKsepUSa4MzJ75fDFxLg3PbOKysKO39roi+WuK11yausqPX8W51dP5RN8pESZsjKKaaa2n0afVNfJlY+/HwUY2Zz5PC+TDynuUqH8OFkyfV/DFN49kn+lWnW223W2+da5g3TWNTKlfrJ7PpEtH+JL2ea0+6lqUu+wJxznbar3Xt8Hv5PXvewoUDlu1PZPKwb5Y2ZRZj3w05V2Jb0/SUJRcoWQfVKyuU4NppSenriTU4zjNKUWmms00801uaa0aKi008ntB9nBuM3Y1td+PbOm6qSlXbXJwnXJfJr2fo4vcZRbjJSTafxn1cK4VbfbCmiud11klGuquLnZZJ+0YxTfT1b9IpNtpJsT6vVfWyyyeeezLfnnplxCzz02l8PDp4wKuIOvC4k4Y+c+WFV3SGPxCT1FJeiqyJPX3X4bG/gfrXGzJTfuP8AAyvgyeN6k+ko8OrknCL9dZdsG1Y/TdNMvL9U52p8quNXWkkktJJJL5JeiP5w6RQw+Ny//T3mtesl7Cf3Hta25/ZX2W1pHT8Mlcul/wC5Wu7P2mvvLd3b+Kz1f6ABViYAAAAAAAAAAAAAAAAAAAAAAAAAAAAAAAAAAAAAAAAAAAAAAAAAAAAAAAAAAAAAAAAAAAAAAAAAAAAAAAAAAAAAAAAAAAAAAAAAAAAAAAAAAAAAAAAAAAB6o5UXJwUouSSbjtc0U/RteqT9m0fuQPaAD8AAAAAAAPEo76Pqn/6nkAEb9s/DpwTP5pZHDsdWT/FdTH7LkSfzdtHlzk/2nL5EE9tP4PmqW5cP4hZV/ssutXwfyUbanVOH5yha/wD5t8Cfs8ev7TJUq0suDfWj5TzS8CNr4dbVvbgs+K0fnHJmYnbjws8cwOaU8KeTXH+twd5a18/KhFZC+bbp1Hrt66kU21uMpQknGcXqUZJxnB/KUXpxf0aTNkTqfbbup4bxKLjm4dGR00pyhy3QT/Uuhy3QfXo4Ti0+pebLp5NZK7pJ/eg8n+WWaf5kV+v0dW2jPwkvmtnk/wDGTALw9vPABiWbnw3Ltxpa6U5CeTR+Ss3G+O/RylK726dHutvb7w08a4buV+HK2qPV34beVSuvq+WMboJerlZTCPX19daBY9IbC9yVKqlL3ZdmXLXRvk2Vy4w25oe3B5cVqvTVeKRGAPzXamtppr5p7X/ofosZGAAAHP8AYrt/m8Ot87Bybcabe5eXL7u306W1S3VatLXxwk17NNJq2ndT49q5ctXGKPKl0X2zFjOdT9t24/x21/WVUrU+r5YIpYCDxHBbPEV/7iC626S0kvHflwea7jvtb6tbP+HLTg9U/D5rJ95sB2d7S4+XVG/FvqyKZrcbKZxsg/puLemvRxemn0aTOTMj+wveNncMt87BybMebac4xe6bta6XUy3XYtLW5Rcor8MovqXM7nfHLiZPLRxWMcG/0WSnvBtfzm5fHjN9ek+epa62ptRMgxboddWmdS3/AIlPuXbXOP2uaz49VF0s8co1so1ezL9L8d3jyzZaQHrovjKKlFqUZJOMotSjJPqmmujTXVNep7DPyygAAAAAHTu87ulweL0eRm0qeutVsdRyMaX61NuuaD+cesJrpKMk2jPfvz8N2bwSbnLeTgylqvMhBpQ2/hhkxW/JsfRKW/Lsf4Wm+RacnozsGFsJV2whZXOLjOucVOFkZLTjKMk4yi10aaaaLXgvSK4wyXVXapZ6wb9Yv7L9HvWxqHv8MpXaz2T3S/zxXqtz255ldzHhs4jxpqdcfs2Hv4s26EnXL6Y9e4SyX7bjKNa6p2Jrld+e6PuJ4fwWvlxKua6UUrcq3lnlX69nPS5Ib6qqtRgn11vbff6KIxioxioxikoxilGMUuiSS6JJdEl0R7D6xnpJdYk3BvqUvcT2/ie2Xw4Rz1fzY4VSte17U/efyW7494ABUiaAAAAAAAAAAAAAAAAAAAAAAAAAAAAAAAAAAAAAAAAAAAAAAAAAAAAAAAAAAAAAAAAAAAAAAAAAAAAAAAAAAAAAAAAAAAAAAAAAAAAAAAAAAAAAAAAAAAAAB1TvB7scPidahk1y54PmpyKZyoy8Sf69F8GrK5fNJ8sl0lGSbR2sHrSqzpSU6baktjTyZ8ThGacZLNPcymfeHR2u7OOV2PnW8U4bFN8+RVDJnjRT0vtUemStRfW6m3yukpTVPwo9XY/+EKkklxDhyl87MGxJy+qoyJJL/wDUvf0LoNFae/HwW4udz5PDXXg5bblKrlawsqT23uEf5vZKXV21xlFttyrm3zK+2GK4beZUsUowUtiqwj1M/wAap5a9+TXGK1ZXLmzuqGc7SpJr3JPrflc8/Lb3vYd27HeLTgOa1GObHHsel5eXCeK9v2VliVMn9IWyfQlvEzIWRU4SjOMltShJSjJfNNNpr8jI3tl2Jy+H3yxs2izHuj+jNfDZH9eqa3C2vqvjrlKO+j000vV2Y7X5eFLmw8rIxXvmf2e6dMZv5zhCShZ+U4yTXTTLFcdBrerH6SzrNJrNdbKafKUctPCRGUukFWD6tems08nlnFrweevijX0GevYzx0cZxtRyY4+fBLX3kfs2Q38/NpTr/c8d9fdE/dh/HPwfJ5Y5Su4fY3p+bF3Y+/8AHpUtR/vW11Lp110KVedFMStdfo+vHjB9b9Ok/wBJPUMZtaunW6r4S09fZ9SxgOJ7OdrMXMrVuJk0ZNb/AE6LYXQ/JuEpJNe6fVM5YqcoSg3GSaa2prJ+pMxkpLNPQAA+D6AAAAAAI17x/DrwjinNLJxIRukv5zR9xkp+qbnBas0+qV0bI+vR7e6sd5PgNzsfms4bfHOrXVUW8mPl6S9FP4ce1v6vH/Jl8QWXDukV9YZKnUzj7ku1Hwz1j4NEVc4Zb3Gso5PitH/h+KZj5x7s9kYtsqMqm3Huj613QlXPp7pSS5o/KUdxfs2cea69sOweFxCryc3Gpya97SthGbhL9aEmuauS/Wg4y+pVHvU8BGua3g9/tv7HlSb39Ksrq103qN8Zbet2x6s1LDOmlrcZQuV9HLjtg/HbHxWS3yKjd4FWpZypdpcNkvLY/DX7pTgHL9qux+Vg3OjMx7ca1b+C2Djzpa3KuX4LYdV8dcpx6+pxBoMJxnFSi009U080+TWjK2008ntW4AA+z8JO7nfETxLgslGizzsTbc8K5t0Pfq6pLc8ef1r3BttyrsZffuc8Q3DuNQ1jzdWTFbtw7tRvr+codeW6v/aVtpfpKD+FZdHuws2dU4W1TnXZXJSrsrlKuyqS9JQnFqUZL5xaZUMZ6M2uJJzS6lX30tv4l9rnpLvy0JmxxWra9n2oe63s5Pdy2d282NBTbuH8b34MTjbS9Iw4jFai+uksuuK1D65EEoernGtJzdxMbKjOMZwlGcJJSjKLUozi1tOMltNNdU09MwvE8JucOqfR3EcuElrGXJ/FaNb0jQbS9pXUetTfNb1zXz2Pcz2gAhzuAAAAAAAAAAAAAAAAAAAAAAAAAAAAAAAAAAAAAAAAAAAAAAAAAAAAAAAAAAAAAAAAAAAAAAAAAAAAAAAAAAAAAAAAAAAAAAAAAAAAAAAAAAAAAAAAAAAAAAAAAAAAAAAAAAAAOtdvu7jC4pQ8bOojdW+sd7jZVL9eqyLU65r9aEltdHtNp0U78PB5m8M58jD5s7BW5PlW8zFj1b82qK+9hFf1tK36uVcEuZ6IAsmEY/dYZL+G84Z6wfsvjl7r714p7CLvcOo3a7SyluktvjxXd5ZGNcJprae0/RrqmeTRLvx8H+FxRzyMVxwc6TcpTjH+LZUtf19S9JP+2r1L3kreiKJdvu7fO4Xf9nzseVE+vJL8dN8U2uem2PwWRet62pxTXNGD6G54Rj9ricf4TynlrB+0uXvLvXilsM+vcOrWj7azjuktnjwfc/Bs4bg/GrsexW491uPatfeUWTps6eicq5RbX0bafXp1ZOvYPxu8ZxNRyXVxGte16VF66+ivphr031spsl9SvwJO7w+2vFlcU4y5rVcpLtLwaOSjcVaDzpSa5PTy2PxRop3f+Njg2ZqGROzh1vyy1FUP06xyISlWo9f67yX6/DpbJ4ws6FsI2VzjZCS3GcJKcJr5xlFtNfVMxzOxdie8XP4bNzwMu7Fbe5RradVj6dbKZqVM301ucG9e6M+v+gtGecrSo4v3ZdqPmu0v1FktukFSOlaPWXFaPy9l/pNcQUs7tvH7OPLXxbFU1vX2nCXK0vnZjWTe9erlVbt+1XTTtP2A71eH8Ur8zByq70vxQTcLqvpZTNRtrf7UFv22mmZpiGB3uH616b6vvLWPmtmfB5PuLXa4hQudKcteD0fk9vhmu87YACBJEAAAAAA4Ptf2JxM+mWPmY9WRVL9GyO+V/rQktTrmvadcoyXs0U974fAndVzX8Gsd9a23hXzSvikvSi+Wo29fSF7hLq35s3qLu8CdwzGrvDpZ0J9nfB6xfhufesn3kdd2FG6X8Ra7pLRrx+TzXcY6cR4fZTZOm6udVtcuWyqyMq7K5eupwklKL1pra6ppraaZ85qn3s9xvDuM1cmXVq2MWqsqrUMrH31+CzTUo7SbrsjOt+8WUM77PDFxDgzla4vKwU3rLqj/ACS9lk1bcqml/WfFU9fig2oLa8G6UWuI5U5dir7rej/DLfyeT4Z7SiX2E1rXOS7UOKWzmt3PZy2EPniUklt9EvVv0R2PsL3e5vE71j4OPO+x6cmvhrpi3rnutlqFcF6/E9y01FTeou8/cb4N8Phrhk5rjnZq1KPNH+J4k09p01yW52Lp99bt7inCFO3uQxbHrXDI/wAV5zy0gvafP3V3vwT2HLZ4fWu32FlHfJ7F/l9y8ctpXHuQ8IWdxTkvyubBwX1U5R/jeSumnRVOLUYS6/fXLXRONdqlzK/HYTsNjcNxasPEhKFFKahGU52y6vcm5TlKTcm29bSW+iS0jsAMLxjHrnFJfxHlBPNQWxbdXvk+98Xklm0aDZYdStF2dZb5PbyXBd3LNsAArZKgAAAAAAAAAAAAAAAAAAAAAAAAAAAAAAAAAAAAAAAAAAAAAAAAAAAAAAAAAAAAAAAAAAAAAAAAAAAAAAAAAAAAAAAAAAAAAAAAAAAAAAAAAAAAAAAAAAAAAAAAAAAAAAAAAAAAAAA4Tth2KxOIUSxsyivIpl6wsjvlkvScJfihOPrGcHGUX6NHNg+4TlTkpwbTTzTTyafc1qj5lFSWUlmnuKBd+HgsysHnyeGOebiLmlKjTlnY0fXUVHf2qCW+sFG5JJclr3MrS16r3Taa9Gmnppr2aa00+qZsmQh33+FLA4vzX16w899ftNUdwveuiyak1Gz2+8XLatL42vherYL00ccqOIarYqiWv+pLbzWvFN5sp99gKec7b8rfwb2cnp3rYZtg7h3md0ufwi5U51PJzPVV0G7MbJ0tvybeWO2lvcJxhYktuCWm+nmuUq0K0FUpyUotZpp5p+KKZOEoNxkmmtqayYPdg5tlU421WWVWw6wtqnKq2t/OFkHGcX+y0ekHq1noz4LK913jl4hictXEK1xChaXmJqnNgvd82vKvaWtRnGqT97WXC7su/DhnF47wsmMrEtzx7Pusqtem5Uy1Jx3/AFkOat+0mZUHtxcqdco2VznXZB7hZXKVdlcv1oTg1KMvrFplGxTohZXmc6S+jnxiuy+cNnl1eOpP2mNV6Gk+3Hg3r4S2+efgbHAoP3R+OPNxOWnikJZ9G9efDkhm1R+q+CrIS/vuuz1bnY+hdDsB3mYPFKfPwciF8FpTiny20ya3yW1S1OuWvacVv1W1pmP4pgN5hr/jRzhunHWL8dsX3NJ8C7WmI0Lr2H2vdej/AMPwzO0AArxJgAAA/FtSknGSTi0001tST6NNPo010aZ+wAcN2W7GYmDW6cPGoxanJzddFUKYOcvWTUEk37dfRJJaSSXMgH3OcpycpttvVtvNvxZ8xiorKKyXAAA+D6AAAAAAAAAAAAAAAAAAAAAAAAAAAAAAAAAAAAAAAAAAAAAAAAAAAAAAAAAAAAAAAAAAAAAAAAAAAAAAAAAAAAAAAAAAAAAAAAAAAAAAAAAAAAAAAAAAAAAAAAAAAAAAAAAAAAAAAAAAAAAAAAOM7R9msfMpnj5VNd9Fi1OuyKnCXy6P0afVSWnF9U00Uq77/BBfj8+TwdzyaduUsKbTyaFvb8ib5VfCK9K5/faXSV8mkXoBO4XjV1hs+tQl2W9YPWL8Nz71k+/LQjrywo3ccqi13SW1f55PNGN1tTi3GUZRlFuMoyi4zhJesZRklKMl6NNJpn5NNe+vwy8P4zGVkorGzdahmUwXPJpfCsiHwrIgvTUnGaXSNkCh/er3A8T4PKTyqJTx03y5lClZiyj7Ockt0NrXw3KHXajKzWzcsH6SWuJJRT6lX3JPb+F7JfHjHeZ/e4XWtXm1nD3kvit3w7yOgAWwiAcl2b7S5GHdHJxLrMe+G1G2qXLJJ63F73GcG0m65xlCWluL0jjQfMoqScZJNNZNNZprg09GfqbTzW0u53KeOaq3lx+MqOPY+kc2qLWLZ6a8+G5Sok/exc1PRyfkrSVssbKjOMZwlGcJJSjKLUozi+qcZLaaa6pp6ZlV3U9y/EOM2+Xh1brjJK7Js3DFx/mpWafNYl1VNfNN7TajF8y0S7iu5iHBMP7NHJvyZSanZKyUlTGeuqxsfmlDHrbbbjFylJ6cpzaTWGdLMMw60l1refVqt60lquf/APXy1zzWSSL/AINd3VZZVFnDdN6Pl97nuyebbJIABnJaAAAAAAAAAAAAAAAAAAAAAAAAAAAAAAAAAAAAAAAAAAAAAAAAAAAAAAAAAAAAAAAAAAAAAAAAAAAAAAAAAAAAAAAAAAAAAAAAAAAAAAAAAAAAAAAAAAAAAAAAAAAAAAAAAAAAAAAAAAAAAAAAAAAAAAAAAAAAAfi2pSTjJJprTTW00/VNPo0/kfsAFcO9rwS8Ozee7Bf/AEdky3JqCcsK6T/Xo3qrb98d1rbcpQm2VI7UeGnjmJZKufDr7VH0txYvJosWt7hKC59e2rK65dPwrpvUYF2w3pdfWcepJqpHd1821yknn4PPLdkQFzgtvWfWj2X93LJ+Gzyy7zK/g/h445e0q+F5fXXxWwWPBJ+7lfKuOkuvrv6P0LBd03gKlzK3jN0XFdVh4lk/j+l2SlXJL5woSe1/La2i5wOm96aX1xFwpqNNPfHPrebenNJPvPKhgNvTfWnnLueWXklryba7j4eCcDpxqoUY9VdNNaUYV1RUIQS9lGKSX/y+p9wBQpScnm3m3rmWNJJZIAA+T9AAAAAAAAAAAAAAAAAAAAAAAAAAAAAAAAAAAAAAAAAAAAAAAAAAAAAAAAAAAAAAAAAAAAAAAAAAAAAAAAAAAAAAAAAAAAAAAAAAAAAAAAAAAAAAAAAAAAAAAAAAAAAAAAAAAAAAAAAAAAAAAAAAAAAAAAAAAAAAAAAAAAAAAAAAAAAAAAAAAAAAAAAAAAAAAAAAAAAAAAAAAAAAAAAAAAAAAAAAAAAAAAAAAAAAAAAAAAAAAAAAAAAAAAAP/9k=;" vertex="1" parent="1">
          <mxGeometry x="370" y="400" width="80" height="80" as="geometry" />
        </mxCell>
        <mxCell id="zX_aPd7AnAtp43NVW58V-54" style="edgeStyle=orthogonalEdgeStyle;rounded=0;orthogonalLoop=1;jettySize=auto;html=1;" edge="1" parent="1" source="zX_aPd7AnAtp43NVW58V-51" target="zX_aPd7AnAtp43NVW58V-26">
          <mxGeometry relative="1" as="geometry">
            <Array as="points">
              <mxPoint x="78" y="225" />
            </Array>
          </mxGeometry>
        </mxCell>
        <mxCell id="zX_aPd7AnAtp43NVW58V-51" value="Helm Application" style="dashed=0;outlineConnect=0;html=1;align=center;labelPosition=center;verticalLabelPosition=bottom;verticalAlign=top;shape=mxgraph.weblogos.github" vertex="1" parent="1">
          <mxGeometry x="40" y="402.5" width="75" height="75" as="geometry" />
        </mxCell>
      </root>
    </mxGraphModel>
  </diagram>
</mxfile>
